<mxfile type="github" version="12.8.2" host="www.draw.io" modified="2020-03-10T18:31:33.137Z" agent="Mozilla/5.0 (Windows NT 10.0; Win64; x64) AppleWebKit/537.36 (KHTML, like Gecko) Chrome/70.0.3538.102 Safari/537.36 Edge/18.18363" etag="WSQKfkNvDFgaB3tTs0KW">
  <diagram id="BwDKmyLNI1KqZc9jXRQb" name="Page-1">
    <mxGraphModel grid="1" dx="3669" dy="746" gridSize="10" guides="0" tooltips="1" connect="1" arrows="1" fold="1" page="1" pageScale="1" pageWidth="1169" pageHeight="827" math="0" shadow="1">
      <root>
        <mxCell id="0" />
        <mxCell id="1" parent="0" />
        <mxCell id="NfXFw1aVSQLSVC3R290Q-521" parent="1" edge="1" target="NfXFw1aVSQLSVC3R290Q-519" source="NfXFw1aVSQLSVC3R290Q-429" style="edgeStyle=none;rounded=0;orthogonalLoop=1;jettySize=auto;html=1;exitX=0.5;exitY=1;exitDx=0;exitDy=0;entryX=0.5;entryY=0;entryDx=0;entryDy=0;strokeColor=#00994D;strokeWidth=4;fontSize=15;fontColor=#9673A6;">
          <mxGeometry as="geometry" relative="1" />
        </mxCell>
        <mxCell id="NfXFw1aVSQLSVC3R290Q-518" parent="1" edge="1" target="NfXFw1aVSQLSVC3R290Q-516" source="NfXFw1aVSQLSVC3R290Q-434" style="edgeStyle=none;rounded=0;orthogonalLoop=1;jettySize=auto;html=1;exitX=0.5;exitY=1;exitDx=0;exitDy=0;entryX=0.5;entryY=0;entryDx=0;entryDy=0;strokeColor=#9673A6;strokeWidth=4;fontSize=15;fontColor=#9673A6;">
          <mxGeometry as="geometry" relative="1" />
        </mxCell>
        <mxCell id="NfXFw1aVSQLSVC3R290Q-537" parent="1" edge="1" target="NfXFw1aVSQLSVC3R290Q-543" source="NfXFw1aVSQLSVC3R290Q-544" style="edgeStyle=none;rounded=0;orthogonalLoop=1;jettySize=auto;html=1;exitX=0.5;exitY=1;exitDx=0;exitDy=0;strokeColor=#FF0080;strokeWidth=4;fontSize=15;fontColor=#9673A6;fillColor=#ffff88;entryX=0.5;entryY=0;entryDx=0;entryDy=0;">
          <mxGeometry as="geometry" relative="1">
            <mxPoint as="sourcePoint" y="173.33333333333348" x="-1222.8776978417263" />
            <mxPoint as="targetPoint" y="710" x="-1800" />
          </mxGeometry>
        </mxCell>
        <mxCell id="NfXFw1aVSQLSVC3R290Q-370" parent="1" edge="1" target="NfXFw1aVSQLSVC3R290Q-366" source="NfXFw1aVSQLSVC3R290Q-220" style="edgeStyle=none;rounded=0;orthogonalLoop=1;jettySize=auto;html=1;exitX=0.5;exitY=1;exitDx=0;exitDy=0;entryX=0.5;entryY=0;entryDx=0;entryDy=0;strokeColor=#82b366;strokeWidth=4;fontSize=15;fontColor=#9673A6;fillColor=#d5e8d4;">
          <mxGeometry as="geometry" relative="1" />
        </mxCell>
        <mxCell id="NfXFw1aVSQLSVC3R290Q-381" parent="1" edge="1" target="NfXFw1aVSQLSVC3R290Q-379" source="NfXFw1aVSQLSVC3R290Q-220" style="edgeStyle=none;rounded=0;orthogonalLoop=1;jettySize=auto;html=1;exitX=0.5;exitY=1;exitDx=0;exitDy=0;entryX=0.5;entryY=0;entryDx=0;entryDy=0;strokeColor=#82b366;strokeWidth=4;fontSize=15;fontColor=#9673A6;fillColor=#d5e8d4;">
          <mxGeometry as="geometry" relative="1" />
        </mxCell>
        <mxCell id="NfXFw1aVSQLSVC3R290Q-323" parent="1" edge="1" target="NfXFw1aVSQLSVC3R290Q-544" source="NfXFw1aVSQLSVC3R290Q-382" style="edgeStyle=none;rounded=0;orthogonalLoop=1;jettySize=auto;html=1;exitX=1;exitY=0.5;exitDx=0;exitDy=0;entryX=0;entryY=0.5;entryDx=0;entryDy=0;strokeColor=#d6b656;strokeWidth=4;fontSize=15;fontColor=#9673A6;fillColor=#fff2cc;">
          <mxGeometry as="geometry" relative="1" />
        </mxCell>
        <mxCell id="NfXFw1aVSQLSVC3R290Q-330" parent="1" edge="1" target="NfXFw1aVSQLSVC3R290Q-328" source="NfXFw1aVSQLSVC3R290Q-382" style="edgeStyle=none;rounded=0;orthogonalLoop=1;jettySize=auto;html=1;exitX=0.5;exitY=1;exitDx=0;exitDy=0;entryX=0.5;entryY=0;entryDx=0;entryDy=0;strokeColor=#0E8088;strokeWidth=4;fontSize=15;fontColor=#9673A6;fillColor=#fff2cc;">
          <mxGeometry as="geometry" relative="1" />
        </mxCell>
        <mxCell id="NfXFw1aVSQLSVC3R290Q-500" value="" parent="1" edge="1" style="endArrow=none;html=1;fontSize=15;fontColor=#004C99;strokeColor=#004C99;strokeWidth=4;">
          <mxGeometry as="geometry" relative="1" height="50" width="50">
            <mxPoint as="sourcePoint" y="243" x="170" />
            <mxPoint as="targetPoint" y="213" x="170" />
          </mxGeometry>
        </mxCell>
        <mxCell id="NfXFw1aVSQLSVC3R290Q-5" value="&lt;font color=&quot;#004c99&quot; style=&quot;font-size: 17px ; background-color: transparent&quot;&gt;&lt;b&gt;Operaciones_04&lt;/b&gt;&lt;/font&gt;" parent="1" style="points=[];aspect=fixed;html=1;align=center;shadow=0;dashed=0;image;image=img/lib/allied_telesis/computer_and_terminals/Server_Desktop.svg;strokeWidth=3;imageBackground=none;imageBorder=none;" vertex="1">
          <mxGeometry as="geometry" y="93" x="-1257" height="94" width="74.16" />
        </mxCell>
        <mxCell id="NfXFw1aVSQLSVC3R290Q-495" value="&lt;b&gt;&lt;font color=&quot;#004c99&quot; size=&quot;4&quot; style=&quot;background-color: transparent&quot;&gt;ws-Oper01&lt;/font&gt;&lt;/b&gt;" parent="1" style="points=[];aspect=fixed;html=1;align=center;shadow=0;dashed=0;image;image=img/lib/allied_telesis/computer_and_terminals/Server_Desktop.svg;strokeWidth=3;imageBackground=none;imageBorder=none;" vertex="1">
          <mxGeometry as="geometry" y="88" x="135.98000000000002" height="94" width="74.16" />
        </mxCell>
        <mxCell id="NfXFw1aVSQLSVC3R290Q-253" value="&lt;h1&gt;Procesos&lt;/h1&gt;&lt;p&gt;A partir de las bases de datos inmersas en el servidor Opereaciones04&lt;/p&gt;" parent="1" style="text;html=1;strokeColor=none;fillColor=none;spacing=5;spacingTop=-20;whiteSpace=wrap;overflow=hidden;rounded=0;labelBackgroundColor=none;fontSize=15;fontColor=#004C99;" vertex="1">
          <mxGeometry as="geometry" y="80" x="-1980" height="120" width="190" />
        </mxCell>
        <mxCell id="NfXFw1aVSQLSVC3R290Q-162" value="1" parent="1" style="shape=cylinder;whiteSpace=wrap;html=1;boundedLbl=1;backgroundOutline=1;labelBackgroundColor=none;strokeWidth=3;fillColor=#dae8fc;strokeColor=#6c8ebf;fontColor=#004C99;fontSize=15;" vertex="1">
          <mxGeometry as="geometry" y="263" x="-1940" height="46.66666666666666" width="31.07913669064748" />
        </mxCell>
        <mxCell id="NfXFw1aVSQLSVC3R290Q-163" value="2" parent="1" style="shape=cylinder;whiteSpace=wrap;html=1;boundedLbl=1;backgroundOutline=1;labelBackgroundColor=none;strokeWidth=3;fillColor=#dae8fc;strokeColor=#6c8ebf;fontColor=#004C99;fontSize=15;" vertex="1">
          <mxGeometry as="geometry" y="309.66666666666663" x="-1898.5611510791368" height="46.66666666666666" width="31.07913669064748" />
        </mxCell>
        <mxCell id="NfXFw1aVSQLSVC3R290Q-164" value="3" parent="1" style="shape=cylinder;whiteSpace=wrap;html=1;boundedLbl=1;backgroundOutline=1;labelBackgroundColor=none;strokeWidth=3;fillColor=#dae8fc;strokeColor=#6c8ebf;fontColor=#004C99;fontSize=15;" vertex="1">
          <mxGeometry as="geometry" y="354.3333333333333" x="-1855.1223021582734" height="46.66666666666666" width="31.07913669064748" />
        </mxCell>
        <mxCell id="NfXFw1aVSQLSVC3R290Q-188" value="19" parent="1" style="shape=cylinder;whiteSpace=wrap;html=1;boundedLbl=1;backgroundOutline=1;labelBackgroundColor=none;strokeWidth=3;fillColor=#e1d5e7;strokeColor=#9673a6;fontSize=15;" vertex="1">
          <mxGeometry as="geometry" y="356.3333333333333" x="-1190.9928057553957" height="46.66666666666666" width="31.07913669064748" />
        </mxCell>
        <mxCell id="NfXFw1aVSQLSVC3R290Q-189" value="18" parent="1" style="shape=cylinder;whiteSpace=wrap;html=1;boundedLbl=1;backgroundOutline=1;labelBackgroundColor=none;strokeWidth=3;fillColor=#b0e3e6;strokeColor=#0e8088;fontSize=15;" vertex="1">
          <mxGeometry as="geometry" y="309.66666666666663" x="-1235.539568345324" height="46.66666666666666" width="31.07913669064748" />
        </mxCell>
        <mxCell id="NfXFw1aVSQLSVC3R290Q-190" value="12" parent="1" style="shape=cylinder;whiteSpace=wrap;html=1;boundedLbl=1;backgroundOutline=1;labelBackgroundColor=none;strokeWidth=3;fillColor=#dae8fc;strokeColor=#6c8ebf;fontColor=#004C99;fontSize=15;" vertex="1">
          <mxGeometry as="geometry" y="309.66666666666663" x="-1484.1726618705036" height="46.66666666666666" width="31.07913669064748" />
        </mxCell>
        <mxCell id="NfXFw1aVSQLSVC3R290Q-191" value="8" parent="1" style="shape=cylinder;whiteSpace=wrap;html=1;boundedLbl=1;backgroundOutline=1;labelBackgroundColor=none;strokeWidth=3;fillColor=#dae8fc;strokeColor=#6c8ebf;fontColor=#004C99;fontSize=15;" vertex="1">
          <mxGeometry as="geometry" y="309.66666666666663" x="-1649.928057553957" height="46.66666666666666" width="31.07913669064748" />
        </mxCell>
        <mxCell id="NfXFw1aVSQLSVC3R290Q-192" value="11" parent="1" style="shape=cylinder;whiteSpace=wrap;html=1;boundedLbl=1;backgroundOutline=1;labelBackgroundColor=none;strokeWidth=3;fillColor=#CCCCCC;strokeColor=#000000;fontColor=#004C99;fontSize=15;" vertex="1">
          <mxGeometry as="geometry" y="356.3333333333333" x="-1525.611510791367" height="46.66666666666666" width="31.07913669064748" />
        </mxCell>
        <mxCell id="NfXFw1aVSQLSVC3R290Q-194" value="10" parent="1" style="shape=cylinder;whiteSpace=wrap;html=1;boundedLbl=1;backgroundOutline=1;labelBackgroundColor=none;strokeWidth=3;fillColor=#dae8fc;strokeColor=#6c8ebf;fontColor=#004C99;fontSize=15;" vertex="1">
          <mxGeometry as="geometry" y="309.66666666666663" x="-1567.0503597122301" height="46.66666666666666" width="31.07913669064748" />
        </mxCell>
        <mxCell id="NfXFw1aVSQLSVC3R290Q-195" value="20" parent="1" style="shape=cylinder;whiteSpace=wrap;html=1;boundedLbl=1;backgroundOutline=1;labelBackgroundColor=none;strokeWidth=3;fillColor=#fff2cc;strokeColor=#d6b656;fontSize=15;" vertex="1">
          <mxGeometry as="geometry" y="309.66666666666663" x="-1152.6618705035971" height="46.66666666666666" width="31.07913669064748" />
        </mxCell>
        <mxCell id="NfXFw1aVSQLSVC3R290Q-196" value="16" parent="1" style="shape=cylinder;whiteSpace=wrap;html=1;boundedLbl=1;backgroundOutline=1;labelBackgroundColor=none;strokeWidth=3;fillColor=#FFCCE6;strokeColor=#FF0080;fontSize=15;" vertex="1">
          <mxGeometry as="geometry" y="309.66666666666663" x="-1318.4172661870502" height="46.66666666666666" width="31.07913669064748" />
        </mxCell>
        <mxCell id="NfXFw1aVSQLSVC3R290Q-197" value="13" parent="1" style="shape=cylinder;whiteSpace=wrap;html=1;boundedLbl=1;backgroundOutline=1;labelBackgroundColor=none;strokeWidth=3;fillColor=#dae8fc;strokeColor=#6c8ebf;fontColor=#004C99;fontSize=15;" vertex="1">
          <mxGeometry as="geometry" y="263" x="-1442.7338129496402" height="46.66666666666666" width="31.07913669064748" />
        </mxCell>
        <mxCell id="NfXFw1aVSQLSVC3R290Q-198" value="9" parent="1" style="shape=cylinder;whiteSpace=wrap;html=1;boundedLbl=1;backgroundOutline=1;labelBackgroundColor=none;strokeWidth=3;fillColor=#dae8fc;strokeColor=#6c8ebf;fontColor=#004C99;fontSize=15;" vertex="1">
          <mxGeometry as="geometry" y="263" x="-1608.4892086330935" height="46.66666666666666" width="31.07913669064748" />
        </mxCell>
        <mxCell id="NfXFw1aVSQLSVC3R290Q-199" value="4" parent="1" style="shape=cylinder;whiteSpace=wrap;html=1;boundedLbl=1;backgroundOutline=1;labelBackgroundColor=none;strokeWidth=3;fillColor=#dae8fc;strokeColor=#6c8ebf;fontColor=#004C99;fontSize=15;" vertex="1">
          <mxGeometry as="geometry" y="309.66666666666663" x="-1815.68345323741" height="46.66666666666666" width="31.07913669064748" />
        </mxCell>
        <mxCell id="NfXFw1aVSQLSVC3R290Q-200" value="6" parent="1" style="shape=cylinder;whiteSpace=wrap;html=1;boundedLbl=1;backgroundOutline=1;labelBackgroundColor=none;strokeWidth=3;fillColor=#dae8fc;strokeColor=#6c8ebf;fontColor=#004C99;fontSize=15;" vertex="1">
          <mxGeometry as="geometry" y="309.66666666666663" x="-1732.8057553956835" height="46.66666666666666" width="31.07913669064748" />
        </mxCell>
        <mxCell id="NfXFw1aVSQLSVC3R290Q-201" value="5" parent="1" style="shape=cylinder;whiteSpace=wrap;html=1;boundedLbl=1;backgroundOutline=1;labelBackgroundColor=none;strokeWidth=3;fillColor=#dae8fc;strokeColor=#6c8ebf;fontColor=#004C99;fontSize=15;" vertex="1">
          <mxGeometry as="geometry" y="263" x="-1774.2446043165468" height="46.66666666666666" width="31.07913669064748" />
        </mxCell>
        <mxCell id="NfXFw1aVSQLSVC3R290Q-202" value="7" parent="1" style="shape=cylinder;whiteSpace=wrap;html=1;boundedLbl=1;backgroundOutline=1;labelBackgroundColor=none;strokeWidth=3;fillColor=#dae8fc;strokeColor=#6c8ebf;fontColor=#004C99;fontSize=15;" vertex="1">
          <mxGeometry as="geometry" y="356.3333333333333" x="-1691.36690647482" height="46.66666666666666" width="31.07913669064748" />
        </mxCell>
        <mxCell id="NfXFw1aVSQLSVC3R290Q-203" value="15" parent="1" style="shape=cylinder;whiteSpace=wrap;html=1;boundedLbl=1;backgroundOutline=1;labelBackgroundColor=none;strokeWidth=3;fillColor=#dae8fc;strokeColor=#6c8ebf;fontColor=#004C99;fontSize=15;" vertex="1">
          <mxGeometry as="geometry" y="356.3333333333333" x="-1359.8561151079138" height="46.66666666666666" width="31.07913669064748" />
        </mxCell>
        <mxCell id="NfXFw1aVSQLSVC3R290Q-204" value="17" parent="1" style="shape=cylinder;whiteSpace=wrap;html=1;boundedLbl=1;backgroundOutline=1;labelBackgroundColor=none;strokeWidth=3;fillColor=#dae8fc;strokeColor=#6c8ebf;fontColor=#004C99;fontSize=15;" vertex="1">
          <mxGeometry as="geometry" y="263" x="-1276.978417266187" height="46.66666666666666" width="31.07913669064748" />
        </mxCell>
        <mxCell id="NfXFw1aVSQLSVC3R290Q-205" value="21" parent="1" style="shape=cylinder;whiteSpace=wrap;html=1;boundedLbl=1;backgroundOutline=1;labelBackgroundColor=none;strokeWidth=3;fillColor=#dae8fc;strokeColor=#6c8ebf;fontColor=#004C99;fontSize=15;" vertex="1">
          <mxGeometry as="geometry" y="263" x="-1111.223021582734" height="46.66666666666666" width="31.07913669064748" />
        </mxCell>
        <mxCell id="NfXFw1aVSQLSVC3R290Q-220" value="22" parent="1" style="shape=cylinder;whiteSpace=wrap;html=1;boundedLbl=1;backgroundOutline=1;labelBackgroundColor=none;strokeWidth=3;fillColor=#d5e8d4;strokeColor=#82b366;fontSize=15;" vertex="1">
          <mxGeometry as="geometry" y="309.66666666666663" x="-1069.7841726618703" height="46.66666666666666" width="31.07913669064748" />
        </mxCell>
        <mxCell id="NfXFw1aVSQLSVC3R290Q-231" value="23" parent="1" style="shape=cylinder;whiteSpace=wrap;html=1;boundedLbl=1;backgroundOutline=1;labelBackgroundColor=none;strokeWidth=3;fillColor=#dae8fc;strokeColor=#6c8ebf;fontColor=#004C99;fontSize=15;" vertex="1">
          <mxGeometry as="geometry" y="356.3333333333333" x="-1028.3453237410071" height="46.66666666666666" width="31.07913669064748" />
        </mxCell>
        <mxCell id="NfXFw1aVSQLSVC3R290Q-232" value="24" parent="1" style="shape=cylinder;whiteSpace=wrap;html=1;boundedLbl=1;backgroundOutline=1;labelBackgroundColor=none;strokeWidth=3;fillColor=#f5f5f5;strokeColor=#666666;fontColor=#333333;fontSize=15;" vertex="1">
          <mxGeometry as="geometry" y="309.66666666666663" x="-986.906474820144" height="46.66666666666666" width="31.07913669064748" />
        </mxCell>
        <mxCell id="NfXFw1aVSQLSVC3R290Q-233" value="25" parent="1" style="shape=cylinder;whiteSpace=wrap;html=1;boundedLbl=1;backgroundOutline=1;labelBackgroundColor=none;strokeWidth=3;fillColor=#dae8fc;strokeColor=#6c8ebf;fontColor=#004C99;fontSize=15;" vertex="1">
          <mxGeometry as="geometry" y="263" x="-945.4676258992806" height="46.66666666666666" width="31.07913669064748" />
        </mxCell>
        <mxCell id="NfXFw1aVSQLSVC3R290Q-234" value="26" parent="1" style="shape=cylinder;whiteSpace=wrap;html=1;boundedLbl=1;backgroundOutline=1;labelBackgroundColor=none;strokeWidth=3;fillColor=#dae8fc;strokeColor=#6c8ebf;fontColor=#004C99;fontSize=15;" vertex="1">
          <mxGeometry as="geometry" y="309.66666666666663" x="-904.0287769784172" height="46.66666666666666" width="31.07913669064748" />
        </mxCell>
        <mxCell id="NfXFw1aVSQLSVC3R290Q-235" value="27" parent="1" style="shape=cylinder;whiteSpace=wrap;html=1;boundedLbl=1;backgroundOutline=1;labelBackgroundColor=none;strokeWidth=3;fillColor=#f8cecc;strokeColor=#b85450;fontSize=15;" vertex="1">
          <mxGeometry as="geometry" y="356.3333333333333" x="-862.5899280575538" height="46.66666666666666" width="31.07913669064748" />
        </mxCell>
        <mxCell id="NfXFw1aVSQLSVC3R290Q-236" value="28" parent="1" style="shape=cylinder;whiteSpace=wrap;html=1;boundedLbl=1;backgroundOutline=1;labelBackgroundColor=none;strokeWidth=3;fillColor=#dae8fc;strokeColor=#6c8ebf;fontColor=#004C99;fontSize=15;" vertex="1">
          <mxGeometry as="geometry" y="309.66666666666663" x="-821.1510791366907" height="46.66666666666666" width="31.07913669064748" />
        </mxCell>
        <mxCell id="NfXFw1aVSQLSVC3R290Q-237" value="29" parent="1" style="shape=cylinder;whiteSpace=wrap;html=1;boundedLbl=1;backgroundOutline=1;labelBackgroundColor=none;strokeWidth=3;fillColor=#dae8fc;strokeColor=#6c8ebf;fontColor=#004C99;fontSize=15;" vertex="1">
          <mxGeometry as="geometry" y="263" x="-779.7122302158275" height="46.66666666666666" width="31.07913669064748" />
        </mxCell>
        <mxCell id="NfXFw1aVSQLSVC3R290Q-238" value="30" parent="1" style="shape=cylinder;whiteSpace=wrap;html=1;boundedLbl=1;backgroundOutline=1;labelBackgroundColor=none;strokeWidth=3;fillColor=#dae8fc;strokeColor=#6c8ebf;fontColor=#004C99;fontSize=15;" vertex="1">
          <mxGeometry as="geometry" y="309.66666666666663" x="-738.2733812949639" height="46.66666666666666" width="31.07913669064748" />
        </mxCell>
        <mxCell id="NfXFw1aVSQLSVC3R290Q-239" value="31" parent="1" style="shape=cylinder;whiteSpace=wrap;html=1;boundedLbl=1;backgroundOutline=1;labelBackgroundColor=none;strokeWidth=3;fillColor=#dae8fc;strokeColor=#6C8EBF;fontColor=#004C99;fontSize=15;" vertex="1">
          <mxGeometry as="geometry" y="356.3333333333333" x="-696.8345323741007" height="46.66666666666666" width="31.07913669064748" />
        </mxCell>
        <mxCell id="NfXFw1aVSQLSVC3R290Q-240" value="32" parent="1" style="shape=cylinder;whiteSpace=wrap;html=1;boundedLbl=1;backgroundOutline=1;labelBackgroundColor=none;strokeWidth=3;fillColor=#dae8fc;strokeColor=#6c8ebf;fontColor=#004C99;fontSize=15;" vertex="1">
          <mxGeometry as="geometry" y="309.66666666666663" x="-655.3956834532375" height="46.66666666666666" width="31.07913669064748" />
        </mxCell>
        <mxCell id="NfXFw1aVSQLSVC3R290Q-241" value="33" parent="1" style="shape=cylinder;whiteSpace=wrap;html=1;boundedLbl=1;backgroundOutline=1;labelBackgroundColor=none;strokeWidth=3;fillColor=#dae8fc;strokeColor=#6c8ebf;fontColor=#004C99;fontSize=15;" vertex="1">
          <mxGeometry as="geometry" y="263" x="-613.9568345323739" height="46.66666666666666" width="31.07913669064748" />
        </mxCell>
        <mxCell id="NfXFw1aVSQLSVC3R290Q-242" value="34" parent="1" style="shape=cylinder;whiteSpace=wrap;html=1;boundedLbl=1;backgroundOutline=1;labelBackgroundColor=none;strokeWidth=3;fillColor=#dae8fc;strokeColor=#6c8ebf;fontColor=#004C99;fontSize=15;" vertex="1">
          <mxGeometry as="geometry" y="309.66666666666663" x="-572.5179856115108" height="46.66666666666666" width="31.07913669064748" />
        </mxCell>
        <mxCell id="NfXFw1aVSQLSVC3R290Q-243" value="35" parent="1" style="shape=cylinder;whiteSpace=wrap;html=1;boundedLbl=1;backgroundOutline=1;labelBackgroundColor=none;strokeWidth=3;fillColor=#dae8fc;strokeColor=#6c8ebf;fontColor=#004C99;fontSize=15;" vertex="1">
          <mxGeometry as="geometry" y="356.3333333333333" x="-526.0791366906476" height="46.66666666666666" width="31.07913669064748" />
        </mxCell>
        <mxCell id="NfXFw1aVSQLSVC3R290Q-244" value="&lt;font color=&quot;#d79b00&quot;&gt;14&lt;/font&gt;" parent="1" style="shape=cylinder;whiteSpace=wrap;html=1;boundedLbl=1;backgroundOutline=1;labelBackgroundColor=none;strokeWidth=3;fillColor=#ffe6cc;strokeColor=#d79b00;fontSize=15;" vertex="1">
          <mxGeometry as="geometry" y="309.66666666666663" x="-1396.115107913669" height="46.66666666666666" width="31.07913669064748" />
        </mxCell>
        <mxCell id="NfXFw1aVSQLSVC3R290Q-261" parent="1" edge="1" target="NfXFw1aVSQLSVC3R290Q-164" source="NfXFw1aVSQLSVC3R290Q-164" style="edgeStyle=none;rounded=0;orthogonalLoop=1;jettySize=auto;html=1;entryX=0.5;entryY=0;entryDx=0;entryDy=0;fontSize=15;fontColor=#004C99;">
          <mxGeometry as="geometry" relative="1" />
        </mxCell>
        <mxCell id="NfXFw1aVSQLSVC3R290Q-307" value="&lt;ol&gt;&lt;li&gt;Db_Catálogo&lt;/li&gt;&lt;li&gt;Db_Envío_Cartera&lt;/li&gt;&lt;li&gt;Db_Equipos&lt;/li&gt;&lt;li&gt;Db_Estatus&lt;/li&gt;&lt;li&gt;Db_Factores&lt;/li&gt;&lt;li&gt;Db_Heat&lt;/li&gt;&lt;li&gt;Db_Paso&lt;/li&gt;&lt;li&gt;Db_Piloto&lt;/li&gt;&lt;li&gt;Db_Ran&lt;/li&gt;&lt;li&gt;Db_Servicios_CC&lt;/li&gt;&lt;li&gt;Db_Siebel&lt;/li&gt;&lt;li&gt;Dspdp_Cancelados&lt;/li&gt;&lt;li&gt;Dspdp_Catalogo&lt;/li&gt;&lt;li&gt;Dspdp_COBT&lt;/li&gt;&lt;li&gt;Dspdp_Domicilios&lt;/li&gt;&lt;li&gt;Dspdp_Equipos&lt;/li&gt;&lt;li&gt;Dspdp_Estatus&lt;/li&gt;&lt;li&gt;Dspdp_Macros&lt;/li&gt;&lt;li&gt;Dspdp_OFSC&lt;/li&gt;&lt;li&gt;Dspdp_Origen&lt;/li&gt;&lt;li&gt;Dspdp_Paso&lt;/li&gt;&lt;li&gt;Dspdp_Piloto&lt;/li&gt;&lt;li&gt;Dspdp_Project_Esp&lt;/li&gt;&lt;li&gt;Dspdp_Recuperaciones&lt;/li&gt;&lt;li&gt;Dspdp_Reparaciones&lt;/li&gt;&lt;li&gt;Dspdp_Reports&lt;/li&gt;&lt;li&gt;Dspdp_Revista&lt;/li&gt;&lt;li&gt;Dspdp_SS_Servicio&lt;/li&gt;&lt;li&gt;Dspdp_Telefonia&lt;/li&gt;&lt;li&gt;Dspdp_Ventas&lt;/li&gt;&lt;li&gt;IVR_Telefono&lt;/li&gt;&lt;li&gt;ReportServer&lt;/li&gt;&lt;li&gt;ReportServerTempDB&lt;/li&gt;&lt;li&gt;Soporte_Operativo&lt;/li&gt;&lt;li&gt;Test&lt;br&gt;&lt;/li&gt;&lt;/ol&gt;" parent="1" style="text;html=1;strokeColor=none;fillColor=none;align=left;verticalAlign=middle;whiteSpace=wrap;rounded=0;labelBackgroundColor=none;fontSize=15;fontColor=#004C99;textDirection=ltr;labelPosition=left;verticalLabelPosition=middle;" vertex="1">
          <mxGeometry as="geometry" y="525" x="-2200" height="20" width="40" />
        </mxCell>
        <mxCell id="NfXFw1aVSQLSVC3R290Q-318" value="&lt;font color=&quot;#d79b00&quot;&gt;Cuentas de Lealtad&lt;/font&gt;" parent="1" style="shape=process;whiteSpace=wrap;html=1;backgroundOutline=1;labelBackgroundColor=none;strokeColor=#d79b00;strokeWidth=3;fontSize=15;align=center;fillColor=#ffe6cc;" vertex="1">
          <mxGeometry as="geometry" y="933" x="-1694.3899999999998" height="60" width="120" />
        </mxCell>
        <mxCell id="NfXFw1aVSQLSVC3R290Q-328" value="&lt;div&gt;Envío de cartera&lt;br&gt;&lt;/div&gt;" parent="1" style="shape=process;whiteSpace=wrap;html=1;backgroundOutline=1;labelBackgroundColor=none;strokeColor=#0E8088;strokeWidth=3;fontSize=15;align=center;fillColor=#B0E3E6;" vertex="1">
          <mxGeometry as="geometry" y="1143" x="-1500" height="60" width="120" />
        </mxCell>
        <mxCell id="NfXFw1aVSQLSVC3R290Q-331" value="SADMIN" parent="1" style="shape=process;whiteSpace=wrap;html=1;backgroundOutline=1;labelBackgroundColor=none;strokeColor=#0E8088;strokeWidth=3;fontSize=15;align=center;fillColor=#B0E3E6;" vertex="1">
          <mxGeometry as="geometry" y="1083" x="-1190" height="60" width="120" />
        </mxCell>
        <mxCell id="NfXFw1aVSQLSVC3R290Q-335" value="Solicitudes S/Equipo" parent="1" style="shape=process;whiteSpace=wrap;html=1;backgroundOutline=1;labelBackgroundColor=none;strokeColor=#0E8088;strokeWidth=3;fontSize=15;align=center;fillColor=#B0E3E6;" vertex="1">
          <mxGeometry as="geometry" y="1003" x="-1070.0000000000002" height="60" width="120" />
        </mxCell>
        <mxCell id="NfXFw1aVSQLSVC3R290Q-345" value="&lt;font color=&quot;#6c8ebf&quot;&gt;Ranking México&lt;/font&gt;" parent="1" style="shape=process;whiteSpace=wrap;html=1;backgroundOutline=1;labelBackgroundColor=none;strokeColor=#6c8ebf;strokeWidth=3;fontSize=15;align=center;fillColor=#dae8fc;" vertex="1">
          <mxGeometry as="geometry" y="600" x="-1890" height="60" width="120" />
        </mxCell>
        <mxCell id="NfXFw1aVSQLSVC3R290Q-351" value="&lt;font color=&quot;#004c99&quot;&gt;Validaciones&lt;br&gt;Jobs&lt;/font&gt;" parent="1" style="shape=ellipse;html=1;dashed=0;whitespace=wrap;aspect=fixed;perimeter=ellipsePerimeter;labelBackgroundColor=none;strokeColor=#6c8ebf;strokeWidth=3;fontSize=15;align=center;fillColor=#dae8fc;" vertex="1">
          <mxGeometry as="geometry" y="83" x="-904.03" height="104" width="104" />
        </mxCell>
        <mxCell id="NfXFw1aVSQLSVC3R290Q-363" value="Etapa 3" parent="1" style="shape=process;whiteSpace=wrap;html=1;backgroundOutline=1;labelBackgroundColor=none;strokeColor=#0e8088;strokeWidth=3;fontSize=15;align=center;fillColor=#b0e3e6;" vertex="1">
          <mxGeometry as="geometry" y="980" x="-1540" height="60" width="120" />
        </mxCell>
        <mxCell id="NfXFw1aVSQLSVC3R290Q-365" parent="1" edge="1" target="NfXFw1aVSQLSVC3R290Q-363" source="NfXFw1aVSQLSVC3R290Q-189" style="edgeStyle=none;rounded=0;orthogonalLoop=1;jettySize=auto;html=1;entryX=0.5;entryY=0;entryDx=0;entryDy=0;strokeColor=#0e8088;strokeWidth=4;fontSize=15;fontColor=#9673A6;fillColor=#b0e3e6;exitX=0.5;exitY=1;exitDx=0;exitDy=0;">
          <mxGeometry as="geometry" relative="1" />
        </mxCell>
        <mxCell id="NfXFw1aVSQLSVC3R290Q-366" value="LNBS" parent="1" style="shape=process;whiteSpace=wrap;html=1;backgroundOutline=1;labelBackgroundColor=none;strokeColor=#82b366;strokeWidth=3;fontSize=15;align=center;fillColor=#d5e8d4;" vertex="1">
          <mxGeometry as="geometry" y="620" x="-920" height="60" width="120" />
        </mxCell>
        <mxCell id="NfXFw1aVSQLSVC3R290Q-371" value="&lt;font color=&quot;#6c8ebf&quot;&gt;Paternidad&lt;/font&gt;" parent="1" style="shape=process;whiteSpace=wrap;html=1;backgroundOutline=1;labelBackgroundColor=none;strokeColor=#6c8ebf;strokeWidth=3;fontSize=15;align=center;fillColor=#dae8fc;" vertex="1">
          <mxGeometry as="geometry" y="700" x="-1850.0000000000002" height="60" width="120" />
        </mxCell>
        <mxCell id="NfXFw1aVSQLSVC3R290Q-374" value="&lt;font color=&quot;#004c99&quot;&gt;BackUp&lt;br&gt;DB&lt;/font&gt;" parent="1" style="shape=ellipse;html=1;dashed=0;whitespace=wrap;aspect=fixed;perimeter=ellipsePerimeter;labelBackgroundColor=none;strokeColor=#6c8ebf;strokeWidth=3;fontSize=15;align=center;fillColor=#dae8fc;" vertex="1">
          <mxGeometry as="geometry" y="83" x="-779.71" height="104" width="104" />
        </mxCell>
        <mxCell id="NfXFw1aVSQLSVC3R290Q-375" value="Consultas WEBI" parent="1" style="shape=process;whiteSpace=wrap;html=1;backgroundOutline=1;labelBackgroundColor=none;strokeColor=#0e8088;strokeWidth=3;fontSize=15;align=center;fillColor=#b0e3e6;" vertex="1">
          <mxGeometry as="geometry" y="1083" x="-1370.0000000000002" height="60" width="120" />
        </mxCell>
        <mxCell id="NfXFw1aVSQLSVC3R290Q-379" value="Acumulado IVR" parent="1" style="shape=process;whiteSpace=wrap;html=1;backgroundOutline=1;labelBackgroundColor=none;strokeColor=#82b366;strokeWidth=3;fontSize=15;align=center;fillColor=#d5e8d4;" vertex="1">
          <mxGeometry as="geometry" y="510" x="-800" height="60" width="120" />
        </mxCell>
        <mxCell id="NfXFw1aVSQLSVC3R290Q-423" value="1" parent="1" style="shape=cylinder;whiteSpace=wrap;html=1;boundedLbl=1;backgroundOutline=1;labelBackgroundColor=none;strokeWidth=3;fillColor=#dae8fc;strokeColor=#6c8ebf;fontColor=#004C99;fontSize=15;" vertex="1">
          <mxGeometry as="geometry" y="261" x="-370" height="46.66666666666666" width="31.07913669064748" />
        </mxCell>
        <mxCell id="NfXFw1aVSQLSVC3R290Q-424" value="2" parent="1" style="shape=cylinder;whiteSpace=wrap;html=1;boundedLbl=1;backgroundOutline=1;labelBackgroundColor=none;strokeWidth=3;fillColor=#dae8fc;strokeColor=#6c8ebf;fontColor=#004C99;fontSize=15;" vertex="1">
          <mxGeometry as="geometry" y="307.66666666666663" x="-328.5611510791366" height="46.66666666666666" width="31.07913669064748" />
        </mxCell>
        <mxCell id="NfXFw1aVSQLSVC3R290Q-425" value="3" parent="1" style="shape=cylinder;whiteSpace=wrap;html=1;boundedLbl=1;backgroundOutline=1;labelBackgroundColor=none;strokeWidth=3;fillColor=#dae8fc;strokeColor=#6c8ebf;fontColor=#004C99;fontSize=15;" vertex="1">
          <mxGeometry as="geometry" y="352.3333333333333" x="-285.12230215827344" height="46.66666666666666" width="31.07913669064748" />
        </mxCell>
        <mxCell id="NfXFw1aVSQLSVC3R290Q-426" value="19" parent="1" style="shape=cylinder;whiteSpace=wrap;html=1;boundedLbl=1;backgroundOutline=1;labelBackgroundColor=none;strokeWidth=3;fillColor=#dae8fc;strokeColor=#6c8ebf;fontSize=15;" vertex="1">
          <mxGeometry as="geometry" y="354.3333333333333" x="379.0071942446043" height="46.66666666666666" width="31.07913669064748" />
        </mxCell>
        <mxCell id="NfXFw1aVSQLSVC3R290Q-427" value="18" parent="1" style="shape=cylinder;whiteSpace=wrap;html=1;boundedLbl=1;backgroundOutline=1;labelBackgroundColor=none;strokeWidth=3;fillColor=#b1ddf0;strokeColor=#10739e;fontSize=15;" vertex="1">
          <mxGeometry as="geometry" y="307.66666666666663" x="334.4604316546761" height="46.66666666666666" width="31.07913669064748" />
        </mxCell>
        <mxCell id="NfXFw1aVSQLSVC3R290Q-428" value="12" parent="1" style="shape=cylinder;whiteSpace=wrap;html=1;boundedLbl=1;backgroundOutline=1;labelBackgroundColor=none;strokeWidth=3;fillColor=#FFB366;strokeColor=#FF8000;fontSize=15;" vertex="1">
          <mxGeometry as="geometry" y="307.66666666666663" x="85.82733812949664" height="46.66666666666666" width="31.07913669064748" />
        </mxCell>
        <mxCell id="NfXFw1aVSQLSVC3R290Q-429" value="8" parent="1" style="shape=cylinder;whiteSpace=wrap;html=1;boundedLbl=1;backgroundOutline=1;labelBackgroundColor=none;strokeWidth=3;fillColor=#99FFCC;strokeColor=#00994D;fontSize=15;" vertex="1">
          <mxGeometry as="geometry" y="307.66666666666663" x="-79.92805755395693" height="46.66666666666666" width="31.07913669064748" />
        </mxCell>
        <mxCell id="NfXFw1aVSQLSVC3R290Q-430" value="11" parent="1" style="shape=cylinder;whiteSpace=wrap;html=1;boundedLbl=1;backgroundOutline=1;labelBackgroundColor=none;strokeWidth=3;fillColor=#cdeb8b;strokeColor=#788A51;fontSize=15;" vertex="1">
          <mxGeometry as="geometry" y="354.3333333333333" x="44.38848920863302" height="46.66666666666666" width="31.07913669064748" />
        </mxCell>
        <mxCell id="NfXFw1aVSQLSVC3R290Q-431" value="10" parent="1" style="shape=cylinder;whiteSpace=wrap;html=1;boundedLbl=1;backgroundOutline=1;labelBackgroundColor=none;strokeWidth=3;fillColor=#dae8fc;strokeColor=#6c8ebf;fontColor=#004C99;fontSize=15;" vertex="1">
          <mxGeometry as="geometry" y="307.66666666666663" x="2.949640287769853" height="46.66666666666666" width="31.07913669064748" />
        </mxCell>
        <mxCell id="NfXFw1aVSQLSVC3R290Q-432" value="20" parent="1" style="shape=cylinder;whiteSpace=wrap;html=1;boundedLbl=1;backgroundOutline=1;labelBackgroundColor=none;strokeWidth=3;fillColor=#ffcc99;strokeColor=#C98F58;fontSize=15;" vertex="1">
          <mxGeometry as="geometry" y="307.66666666666663" x="417.33812949640287" height="46.66666666666666" width="31.07913669064748" />
        </mxCell>
        <mxCell id="NfXFw1aVSQLSVC3R290Q-433" value="16" parent="1" style="shape=cylinder;whiteSpace=wrap;html=1;boundedLbl=1;backgroundOutline=1;labelBackgroundColor=none;strokeWidth=3;fillColor=#dae8fc;strokeColor=#6c8ebf;fontColor=#004C99;fontSize=15;" vertex="1">
          <mxGeometry as="geometry" y="307.66666666666663" x="251.58273381294975" height="46.66666666666666" width="31.07913669064748" />
        </mxCell>
        <mxCell id="NfXFw1aVSQLSVC3R290Q-434" value="13" parent="1" style="shape=cylinder;whiteSpace=wrap;html=1;boundedLbl=1;backgroundOutline=1;labelBackgroundColor=none;strokeWidth=3;fillColor=#E5CCFF;strokeColor=#A680B8;fontColor=#004C99;fontSize=15;" vertex="1">
          <mxGeometry as="geometry" y="261" x="127.2661870503598" height="46.66666666666666" width="31.07913669064748" />
        </mxCell>
        <mxCell id="NfXFw1aVSQLSVC3R290Q-435" value="9" parent="1" style="shape=cylinder;whiteSpace=wrap;html=1;boundedLbl=1;backgroundOutline=1;labelBackgroundColor=none;strokeWidth=3;fillColor=#dae8fc;strokeColor=#6c8ebf;fontColor=#004C99;fontSize=15;" vertex="1">
          <mxGeometry as="geometry" y="261" x="-38.48920863309377" height="46.66666666666666" width="31.07913669064748" />
        </mxCell>
        <mxCell id="NfXFw1aVSQLSVC3R290Q-436" value="4" parent="1" style="shape=cylinder;whiteSpace=wrap;html=1;boundedLbl=1;backgroundOutline=1;labelBackgroundColor=none;strokeWidth=3;fillColor=#dae8fc;strokeColor=#6c8ebf;fontColor=#004C99;fontSize=15;" vertex="1">
          <mxGeometry as="geometry" y="307.66666666666663" x="-245.68345323741005" height="46.66666666666666" width="31.07913669064748" />
        </mxCell>
        <mxCell id="NfXFw1aVSQLSVC3R290Q-437" value="6" parent="1" style="shape=cylinder;whiteSpace=wrap;html=1;boundedLbl=1;backgroundOutline=1;labelBackgroundColor=none;strokeWidth=3;fillColor=#dae8fc;strokeColor=#6c8ebf;fontColor=#004C99;fontSize=15;" vertex="1">
          <mxGeometry as="geometry" y="307.66666666666663" x="-162.8057553956835" height="46.66666666666666" width="31.07913669064748" />
        </mxCell>
        <mxCell id="NfXFw1aVSQLSVC3R290Q-438" value="5" parent="1" style="shape=cylinder;whiteSpace=wrap;html=1;boundedLbl=1;backgroundOutline=1;labelBackgroundColor=none;strokeWidth=3;fillColor=#dae8fc;strokeColor=#6c8ebf;fontColor=#004C99;fontSize=15;" vertex="1">
          <mxGeometry as="geometry" y="261" x="-204.24460431654666" height="46.66666666666666" width="31.07913669064748" />
        </mxCell>
        <mxCell id="NfXFw1aVSQLSVC3R290Q-439" value="7" parent="1" style="shape=cylinder;whiteSpace=wrap;html=1;boundedLbl=1;backgroundOutline=1;labelBackgroundColor=none;strokeWidth=3;fillColor=#dae8fc;strokeColor=#6c8ebf;fontColor=#004C99;fontSize=15;" vertex="1">
          <mxGeometry as="geometry" y="354.3333333333333" x="-121.3669064748201" height="46.66666666666666" width="31.07913669064748" />
        </mxCell>
        <mxCell id="NfXFw1aVSQLSVC3R290Q-440" value="15" parent="1" style="shape=cylinder;whiteSpace=wrap;html=1;boundedLbl=1;backgroundOutline=1;labelBackgroundColor=none;strokeWidth=3;fillColor=#dae8fc;strokeColor=#6c8ebf;fontColor=#004C99;fontSize=15;" vertex="1">
          <mxGeometry as="geometry" y="354.3333333333333" x="210.14388489208613" height="46.66666666666666" width="31.07913669064748" />
        </mxCell>
        <mxCell id="NfXFw1aVSQLSVC3R290Q-441" value="17" parent="1" style="shape=cylinder;whiteSpace=wrap;html=1;boundedLbl=1;backgroundOutline=1;labelBackgroundColor=none;strokeWidth=3;fillColor=#dae8fc;strokeColor=#6c8ebf;fontColor=#004C99;fontSize=15;" vertex="1">
          <mxGeometry as="geometry" y="261" x="293.0215827338129" height="46.66666666666666" width="31.07913669064748" />
        </mxCell>
        <mxCell id="NfXFw1aVSQLSVC3R290Q-442" value="21" parent="1" style="shape=cylinder;whiteSpace=wrap;html=1;boundedLbl=1;backgroundOutline=1;labelBackgroundColor=none;strokeWidth=3;fillColor=#dae8fc;strokeColor=#6c8ebf;fontColor=#004C99;fontSize=15;" vertex="1">
          <mxGeometry as="geometry" y="261" x="458.77697841726603" height="46.66666666666666" width="31.07913669064748" />
        </mxCell>
        <mxCell id="NfXFw1aVSQLSVC3R290Q-443" value="22" parent="1" style="shape=cylinder;whiteSpace=wrap;html=1;boundedLbl=1;backgroundOutline=1;labelBackgroundColor=none;strokeWidth=3;fillColor=#dae8fc;strokeColor=#6c8ebf;fontSize=15;" vertex="1">
          <mxGeometry as="geometry" y="307.66666666666663" x="500.21582733812965" height="46.66666666666666" width="31.07913669064748" />
        </mxCell>
        <mxCell id="NfXFw1aVSQLSVC3R290Q-444" value="23" parent="1" style="shape=cylinder;whiteSpace=wrap;html=1;boundedLbl=1;backgroundOutline=1;labelBackgroundColor=none;strokeWidth=3;fillColor=#dae8fc;strokeColor=#6c8ebf;fontColor=#004C99;fontSize=15;" vertex="1">
          <mxGeometry as="geometry" y="354.3333333333333" x="541.6546762589928" height="46.66666666666666" width="31.07913669064748" />
        </mxCell>
        <mxCell id="NfXFw1aVSQLSVC3R290Q-445" value="24" parent="1" style="shape=cylinder;whiteSpace=wrap;html=1;boundedLbl=1;backgroundOutline=1;labelBackgroundColor=none;strokeWidth=3;fillColor=#dae8fc;strokeColor=#6c8ebf;fontColor=#004C99;fontSize=15;" vertex="1">
          <mxGeometry as="geometry" y="307.66666666666663" x="583.093525179856" height="46.66666666666666" width="31.07913669064748" />
        </mxCell>
        <mxCell id="NfXFw1aVSQLSVC3R290Q-446" value="25" parent="1" style="shape=cylinder;whiteSpace=wrap;html=1;boundedLbl=1;backgroundOutline=1;labelBackgroundColor=none;strokeWidth=3;fillColor=#dae8fc;strokeColor=#6c8ebf;fontColor=#004C99;fontSize=15;" vertex="1">
          <mxGeometry as="geometry" y="261" x="624.5323741007196" height="46.66666666666666" width="31.07913669064748" />
        </mxCell>
        <mxCell id="NfXFw1aVSQLSVC3R290Q-447" value="26" parent="1" style="shape=cylinder;whiteSpace=wrap;html=1;boundedLbl=1;backgroundOutline=1;labelBackgroundColor=none;strokeWidth=3;fillColor=#dae8fc;strokeColor=#6c8ebf;fontColor=#004C99;fontSize=15;" vertex="1">
          <mxGeometry as="geometry" y="307.66666666666663" x="665.9712230215828" height="46.66666666666666" width="31.07913669064748" />
        </mxCell>
        <mxCell id="NfXFw1aVSQLSVC3R290Q-448" value="27" parent="1" style="shape=cylinder;whiteSpace=wrap;html=1;boundedLbl=1;backgroundOutline=1;labelBackgroundColor=none;strokeWidth=3;fillColor=#dae8fc;strokeColor=#6c8ebf;fontColor=#004C99;fontSize=15;" vertex="1">
          <mxGeometry as="geometry" y="354.3333333333333" x="712.4100719424459" height="46.66666666666666" width="31.07913669064748" />
        </mxCell>
        <mxCell id="NfXFw1aVSQLSVC3R290Q-457" value="14" parent="1" style="shape=cylinder;whiteSpace=wrap;html=1;boundedLbl=1;backgroundOutline=1;labelBackgroundColor=none;strokeWidth=3;fillColor=#FFF2CC;strokeColor=#D6B656;fontSize=15;" vertex="1">
          <mxGeometry as="geometry" y="307.66666666666663" x="173.8848920863311" height="46.66666666666666" width="31.07913669064748" />
        </mxCell>
        <mxCell id="NfXFw1aVSQLSVC3R290Q-458" parent="1" edge="1" target="NfXFw1aVSQLSVC3R290Q-425" source="NfXFw1aVSQLSVC3R290Q-425" style="edgeStyle=none;rounded=0;orthogonalLoop=1;jettySize=auto;html=1;entryX=0.5;entryY=0;entryDx=0;entryDy=0;fontSize=15;fontColor=#004C99;">
          <mxGeometry as="geometry" relative="1" />
        </mxCell>
        <mxCell id="NfXFw1aVSQLSVC3R290Q-459" value="" parent="1" edge="1" style="endArrow=none;html=1;fontSize=15;fontColor=#004C99;strokeColor=#004C99;strokeWidth=4;">
          <mxGeometry as="geometry" relative="1" height="50" width="50">
            <mxPoint as="sourcePoint" y="241" x="-360" />
            <mxPoint as="targetPoint" y="243" x="730" />
          </mxGeometry>
        </mxCell>
        <mxCell id="NfXFw1aVSQLSVC3R290Q-460" value="" parent="1" edge="1" style="endArrow=none;html=1;fontSize=15;fontColor=#004C99;exitX=0.518;exitY=-0.039;exitDx=0;exitDy=0;exitPerimeter=0;strokeColor=#004C99;strokeWidth=4;">
          <mxGeometry as="geometry" relative="1" height="50" width="50">
            <mxPoint as="sourcePoint" y="259.18000000000006" x="-359.9010071942448" />
            <mxPoint as="targetPoint" y="241" x="-360" />
          </mxGeometry>
        </mxCell>
        <mxCell id="NfXFw1aVSQLSVC3R290Q-461" value="" parent="1" edge="1" source="NfXFw1aVSQLSVC3R290Q-424" style="endArrow=none;html=1;fontSize=15;fontColor=#004C99;exitX=0.593;exitY=-0.017;exitDx=0;exitDy=0;exitPerimeter=0;strokeColor=#004C99;strokeWidth=4;">
          <mxGeometry as="geometry" relative="1" height="50" width="50">
            <mxPoint as="sourcePoint" y="119.18" x="-433.9010071942446" />
            <mxPoint as="targetPoint" y="241" x="-310" />
          </mxGeometry>
        </mxCell>
        <mxCell id="NfXFw1aVSQLSVC3R290Q-462" value="" parent="1" edge="1" source="NfXFw1aVSQLSVC3R290Q-438" style="endArrow=none;html=1;fontSize=15;fontColor=#004C99;exitX=0.467;exitY=-0.046;exitDx=0;exitDy=0;exitPerimeter=0;strokeColor=#004C99;strokeWidth=4;">
          <mxGeometry as="geometry" relative="1" height="50" width="50">
            <mxPoint as="sourcePoint" y="119.18" x="-433.9010071942446" />
            <mxPoint as="targetPoint" y="241" x="-190" />
          </mxGeometry>
        </mxCell>
        <mxCell id="NfXFw1aVSQLSVC3R290Q-463" value="" parent="1" edge="1" style="endArrow=none;html=1;fontSize=15;fontColor=#004C99;strokeColor=#004C99;strokeWidth=4;">
          <mxGeometry as="geometry" relative="1" height="50" width="50">
            <mxPoint as="sourcePoint" y="351" x="-270" />
            <mxPoint as="targetPoint" y="241" x="-270" />
          </mxGeometry>
        </mxCell>
        <mxCell id="NfXFw1aVSQLSVC3R290Q-464" value="" parent="1" edge="1" source="NfXFw1aVSQLSVC3R290Q-436" style="endArrow=none;html=1;fontSize=15;fontColor=#004C99;exitX=0.5;exitY=0;exitDx=0;exitDy=0;strokeColor=#004C99;strokeWidth=4;">
          <mxGeometry as="geometry" relative="1" height="50" width="50">
            <mxPoint as="sourcePoint" y="139.18" x="-413.9010071942446" />
            <mxPoint as="targetPoint" y="241" x="-230" />
          </mxGeometry>
        </mxCell>
        <mxCell id="NfXFw1aVSQLSVC3R290Q-465" value="" parent="1" edge="1" target="NfXFw1aVSQLSVC3R290Q-437" style="endArrow=none;html=1;fontSize=15;fontColor=#004C99;entryX=0.5;entryY=0;entryDx=0;entryDy=0;strokeColor=#004C99;strokeWidth=4;">
          <mxGeometry as="geometry" relative="1" height="50" width="50">
            <mxPoint as="sourcePoint" y="241" x="-147" />
            <mxPoint as="targetPoint" y="101.00000000000005" x="-270" />
          </mxGeometry>
        </mxCell>
        <mxCell id="NfXFw1aVSQLSVC3R290Q-466" value="" parent="1" edge="1" target="NfXFw1aVSQLSVC3R290Q-439" style="endArrow=none;html=1;fontSize=15;fontColor=#004C99;entryX=0.5;entryY=0;entryDx=0;entryDy=0;strokeColor=#004C99;strokeWidth=4;">
          <mxGeometry as="geometry" relative="1" height="50" width="50">
            <mxPoint as="sourcePoint" y="241" x="-106" />
            <mxPoint as="targetPoint" y="111.00000000000005" x="-260" />
          </mxGeometry>
        </mxCell>
        <mxCell id="NfXFw1aVSQLSVC3R290Q-467" value="" parent="1" edge="1" source="NfXFw1aVSQLSVC3R290Q-429" style="endArrow=none;html=1;fontSize=15;fontColor=#004C99;exitX=0.5;exitY=0;exitDx=0;exitDy=0;strokeColor=#004C99;strokeWidth=4;">
          <mxGeometry as="geometry" relative="1" height="50" width="50">
            <mxPoint as="sourcePoint" y="101.00000000000005" x="-186" />
            <mxPoint as="targetPoint" y="241" x="-64" />
          </mxGeometry>
        </mxCell>
        <mxCell id="NfXFw1aVSQLSVC3R290Q-468" value="" parent="1" edge="1" target="NfXFw1aVSQLSVC3R290Q-435" style="endArrow=none;html=1;fontSize=15;fontColor=#004C99;entryX=0.5;entryY=0;entryDx=0;entryDy=0;strokeColor=#004C99;strokeWidth=4;">
          <mxGeometry as="geometry" relative="1" height="50" width="50">
            <mxPoint as="sourcePoint" y="241" x="-23" />
            <mxPoint as="targetPoint" y="101.00000000000005" x="-144" />
          </mxGeometry>
        </mxCell>
        <mxCell id="NfXFw1aVSQLSVC3R290Q-469" value="" parent="1" edge="1" source="NfXFw1aVSQLSVC3R290Q-431" style="endArrow=none;html=1;fontSize=15;fontColor=#004C99;exitX=0.5;exitY=0;exitDx=0;exitDy=0;strokeColor=#004C99;strokeWidth=4;">
          <mxGeometry as="geometry" relative="1" height="50" width="50">
            <mxPoint as="sourcePoint" y="101.00000000000005" x="-103" />
            <mxPoint as="targetPoint" y="241" x="18" />
          </mxGeometry>
        </mxCell>
        <mxCell id="NfXFw1aVSQLSVC3R290Q-470" value="" parent="1" edge="1" source="NfXFw1aVSQLSVC3R290Q-430" style="endArrow=none;html=1;fontSize=15;fontColor=#004C99;exitX=0.5;exitY=0;exitDx=0;exitDy=0;strokeColor=#004C99;strokeWidth=4;">
          <mxGeometry as="geometry" relative="1" height="50" width="50">
            <mxPoint as="sourcePoint" y="167.66666666666663" x="-61.51079136690623" />
            <mxPoint as="targetPoint" y="241" x="60" />
          </mxGeometry>
        </mxCell>
        <mxCell id="NfXFw1aVSQLSVC3R290Q-471" value="" parent="1" edge="1" target="NfXFw1aVSQLSVC3R290Q-428" style="endArrow=none;html=1;fontSize=15;fontColor=#004C99;entryX=0.5;entryY=0;entryDx=0;entryDy=0;strokeColor=#004C99;strokeWidth=4;">
          <mxGeometry as="geometry" relative="1" height="50" width="50">
            <mxPoint as="sourcePoint" y="241" x="101" />
            <mxPoint as="targetPoint" y="101.00000000000005" x="-20" />
          </mxGeometry>
        </mxCell>
        <mxCell id="NfXFw1aVSQLSVC3R290Q-472" value="" parent="1" edge="1" source="NfXFw1aVSQLSVC3R290Q-434" style="endArrow=none;html=1;fontSize=15;fontColor=#004C99;exitX=0.5;exitY=0;exitDx=0;exitDy=0;strokeColor=#004C99;strokeWidth=4;">
          <mxGeometry as="geometry" relative="1" height="50" width="50">
            <mxPoint as="sourcePoint" y="101.00000000000005" x="21" />
            <mxPoint as="targetPoint" y="241" x="143" />
          </mxGeometry>
        </mxCell>
        <mxCell id="NfXFw1aVSQLSVC3R290Q-473" value="" parent="1" edge="1" target="NfXFw1aVSQLSVC3R290Q-457" style="endArrow=none;html=1;fontSize=15;fontColor=#004C99;entryX=0.478;entryY=-0.034;entryDx=0;entryDy=0;entryPerimeter=0;strokeColor=#004C99;strokeWidth=4;">
          <mxGeometry as="geometry" relative="1" height="50" width="50">
            <mxPoint as="sourcePoint" y="241" x="189" />
            <mxPoint as="targetPoint" y="101.00000000000005" x="63" />
          </mxGeometry>
        </mxCell>
        <mxCell id="NfXFw1aVSQLSVC3R290Q-474" value="" parent="1" edge="1" source="NfXFw1aVSQLSVC3R290Q-440" style="endArrow=none;html=1;fontSize=15;fontColor=#004C99;exitX=0.5;exitY=0;exitDx=0;exitDy=0;strokeColor=#004C99;strokeWidth=4;">
          <mxGeometry as="geometry" relative="1" height="50" width="50">
            <mxPoint as="sourcePoint" y="101.00000000000005" x="109" />
            <mxPoint as="targetPoint" y="241" x="226" />
          </mxGeometry>
        </mxCell>
        <mxCell id="NfXFw1aVSQLSVC3R290Q-475" value="" parent="1" edge="1" target="NfXFw1aVSQLSVC3R290Q-433" style="endArrow=none;html=1;fontSize=15;fontColor=#004C99;entryX=0.5;entryY=0;entryDx=0;entryDy=0;strokeColor=#004C99;strokeWidth=4;">
          <mxGeometry as="geometry" relative="1" height="50" width="50">
            <mxPoint as="sourcePoint" y="241" x="267" />
            <mxPoint as="targetPoint" y="101.00000000000005" x="146" />
          </mxGeometry>
        </mxCell>
        <mxCell id="NfXFw1aVSQLSVC3R290Q-476" value="" parent="1" edge="1" source="NfXFw1aVSQLSVC3R290Q-441" style="endArrow=none;html=1;fontSize=15;fontColor=#004C99;exitX=0.5;exitY=0;exitDx=0;exitDy=0;strokeColor=#004C99;strokeWidth=4;">
          <mxGeometry as="geometry" relative="1" height="50" width="50">
            <mxPoint as="sourcePoint" y="101.00000000000005" x="187" />
            <mxPoint as="targetPoint" y="241" x="309" />
          </mxGeometry>
        </mxCell>
        <mxCell id="NfXFw1aVSQLSVC3R290Q-477" value="" parent="1" edge="1" source="NfXFw1aVSQLSVC3R290Q-427" style="endArrow=none;html=1;fontSize=15;fontColor=#004C99;exitX=0.5;exitY=0;exitDx=0;exitDy=0;strokeColor=#004C99;strokeWidth=4;">
          <mxGeometry as="geometry" relative="1" height="50" width="50">
            <mxPoint as="sourcePoint" y="121" x="228.56115107913683" />
            <mxPoint as="targetPoint" y="241" x="350" />
          </mxGeometry>
        </mxCell>
        <mxCell id="NfXFw1aVSQLSVC3R290Q-478" value="" parent="1" edge="1" target="NfXFw1aVSQLSVC3R290Q-426" style="endArrow=none;html=1;fontSize=15;fontColor=#004C99;entryX=0.5;entryY=0;entryDx=0;entryDy=0;strokeColor=#004C99;strokeWidth=4;">
          <mxGeometry as="geometry" relative="1" height="50" width="50">
            <mxPoint as="sourcePoint" y="241" x="395" />
            <mxPoint as="targetPoint" y="101.00000000000005" x="270" />
          </mxGeometry>
        </mxCell>
        <mxCell id="NfXFw1aVSQLSVC3R290Q-479" value="" parent="1" edge="1" source="NfXFw1aVSQLSVC3R290Q-432" style="endArrow=none;html=1;fontSize=15;fontColor=#004C99;exitX=0.5;exitY=0;exitDx=0;exitDy=0;strokeColor=#004C99;strokeWidth=4;">
          <mxGeometry as="geometry" relative="1" height="50" width="50">
            <mxPoint as="sourcePoint" y="101.00000000000005" x="315" />
            <mxPoint as="targetPoint" y="241" x="433" />
          </mxGeometry>
        </mxCell>
        <mxCell id="NfXFw1aVSQLSVC3R290Q-480" value="" parent="1" edge="1" target="NfXFw1aVSQLSVC3R290Q-442" style="endArrow=none;html=1;fontSize=15;fontColor=#004C99;entryX=0.5;entryY=0;entryDx=0;entryDy=0;strokeColor=#004C99;strokeWidth=4;">
          <mxGeometry as="geometry" relative="1" height="50" width="50">
            <mxPoint as="sourcePoint" y="241" x="474" />
            <mxPoint as="targetPoint" y="101.00000000000005" x="353" />
          </mxGeometry>
        </mxCell>
        <mxCell id="NfXFw1aVSQLSVC3R290Q-481" value="" parent="1" edge="1" target="NfXFw1aVSQLSVC3R290Q-443" style="endArrow=none;html=1;fontSize=15;fontColor=#004C99;entryX=0.5;entryY=0;entryDx=0;entryDy=0;strokeColor=#004C99;strokeWidth=4;">
          <mxGeometry as="geometry" relative="1" height="50" width="50">
            <mxPoint as="sourcePoint" y="241" x="516" />
            <mxPoint as="targetPoint" y="121" x="394.31654676258995" />
          </mxGeometry>
        </mxCell>
        <mxCell id="NfXFw1aVSQLSVC3R290Q-482" value="" parent="1" edge="1" target="NfXFw1aVSQLSVC3R290Q-444" style="endArrow=none;html=1;fontSize=15;fontColor=#004C99;entryX=0.5;entryY=0;entryDx=0;entryDy=0;strokeColor=#004C99;strokeWidth=4;">
          <mxGeometry as="geometry" relative="1" height="50" width="50">
            <mxPoint as="sourcePoint" y="241" x="557" />
            <mxPoint as="targetPoint" y="167.66666666666663" x="435.75539568345357" />
          </mxGeometry>
        </mxCell>
        <mxCell id="NfXFw1aVSQLSVC3R290Q-483" value="" parent="1" edge="1" target="NfXFw1aVSQLSVC3R290Q-445" style="endArrow=none;html=1;fontSize=15;fontColor=#004C99;entryX=0.487;entryY=-0.04;entryDx=0;entryDy=0;entryPerimeter=0;strokeColor=#004C99;strokeWidth=4;">
          <mxGeometry as="geometry" relative="1" height="50" width="50">
            <mxPoint as="sourcePoint" y="241" x="598" />
            <mxPoint as="targetPoint" y="214.33333333333331" x="477.19424460431673" />
          </mxGeometry>
        </mxCell>
        <mxCell id="NfXFw1aVSQLSVC3R290Q-484" value="" parent="1" edge="1" target="NfXFw1aVSQLSVC3R290Q-446" style="endArrow=none;html=1;fontSize=15;fontColor=#004C99;entryX=0.5;entryY=0;entryDx=0;entryDy=0;strokeColor=#004C99;strokeWidth=4;">
          <mxGeometry as="geometry" relative="1" height="50" width="50">
            <mxPoint as="sourcePoint" y="241" x="640" />
            <mxPoint as="targetPoint" y="165.79999999999995" x="518.2290647482014" />
          </mxGeometry>
        </mxCell>
        <mxCell id="NfXFw1aVSQLSVC3R290Q-485" value="" parent="1" edge="1" target="NfXFw1aVSQLSVC3R290Q-447" style="endArrow=none;html=1;fontSize=15;fontColor=#004C99;entryX=0.5;entryY=0;entryDx=0;entryDy=0;strokeColor=#004C99;strokeWidth=4;">
          <mxGeometry as="geometry" relative="1" height="50" width="50">
            <mxPoint as="sourcePoint" y="241" x="682" />
            <mxPoint as="targetPoint" y="121" x="560.0719424460431" />
          </mxGeometry>
        </mxCell>
        <mxCell id="NfXFw1aVSQLSVC3R290Q-486" value="" parent="1" edge="1" target="NfXFw1aVSQLSVC3R290Q-448" style="endArrow=none;html=1;fontSize=15;fontColor=#004C99;entryX=0.5;entryY=0;entryDx=0;entryDy=0;strokeColor=#004C99;strokeWidth=4;">
          <mxGeometry as="geometry" relative="1" height="50" width="50">
            <mxPoint as="sourcePoint" y="241" x="728" />
            <mxPoint as="targetPoint" y="167.66666666666663" x="606.5107913669062" />
          </mxGeometry>
        </mxCell>
        <mxCell id="NfXFw1aVSQLSVC3R290Q-248" value="" parent="1" edge="1" style="endArrow=none;html=1;fontSize=15;fontColor=#004C99;strokeColor=#004C99;strokeWidth=4;">
          <mxGeometry as="geometry" relative="1" height="50" width="50">
            <mxPoint as="sourcePoint" y="243" x="-1930" />
            <mxPoint as="targetPoint" y="243" x="-510" />
          </mxGeometry>
        </mxCell>
        <mxCell id="NfXFw1aVSQLSVC3R290Q-249" value="" parent="1" edge="1" style="endArrow=none;html=1;fontSize=15;fontColor=#004C99;strokeColor=#004C99;strokeWidth=4;">
          <mxGeometry as="geometry" relative="1" height="50" width="50">
            <mxPoint as="sourcePoint" y="243" x="-1220" />
            <mxPoint as="targetPoint" y="213" x="-1220" />
          </mxGeometry>
        </mxCell>
        <mxCell id="NfXFw1aVSQLSVC3R290Q-256" value="" parent="1" edge="1" style="endArrow=none;html=1;fontSize=15;fontColor=#004C99;exitX=0.518;exitY=-0.039;exitDx=0;exitDy=0;exitPerimeter=0;strokeColor=#004C99;strokeWidth=4;">
          <mxGeometry as="geometry" relative="1" height="50" width="50">
            <mxPoint as="sourcePoint" y="261.18000000000006" x="-1929.9010071942445" />
            <mxPoint as="targetPoint" y="243" x="-1930" />
          </mxGeometry>
        </mxCell>
        <mxCell id="NfXFw1aVSQLSVC3R290Q-257" value="" parent="1" edge="1" source="NfXFw1aVSQLSVC3R290Q-163" style="endArrow=none;html=1;fontSize=15;fontColor=#004C99;exitX=0.593;exitY=-0.017;exitDx=0;exitDy=0;exitPerimeter=0;strokeColor=#004C99;strokeWidth=4;">
          <mxGeometry as="geometry" relative="1" height="50" width="50">
            <mxPoint as="sourcePoint" y="271.18" x="-1913.9010071942445" />
            <mxPoint as="targetPoint" y="243" x="-1880" />
          </mxGeometry>
        </mxCell>
        <mxCell id="NfXFw1aVSQLSVC3R290Q-258" value="" parent="1" edge="1" source="NfXFw1aVSQLSVC3R290Q-201" style="endArrow=none;html=1;fontSize=15;fontColor=#004C99;exitX=0.467;exitY=-0.046;exitDx=0;exitDy=0;exitPerimeter=0;strokeColor=#004C99;strokeWidth=4;">
          <mxGeometry as="geometry" relative="1" height="50" width="50">
            <mxPoint as="sourcePoint" y="271.18" x="-1913.9010071942445" />
            <mxPoint as="targetPoint" y="243" x="-1760" />
          </mxGeometry>
        </mxCell>
        <mxCell id="NfXFw1aVSQLSVC3R290Q-259" value="" parent="1" edge="1" style="endArrow=none;html=1;fontSize=15;fontColor=#004C99;strokeColor=#004C99;strokeWidth=4;">
          <mxGeometry as="geometry" relative="1" height="50" width="50">
            <mxPoint as="sourcePoint" y="353" x="-1840" />
            <mxPoint as="targetPoint" y="243" x="-1840" />
          </mxGeometry>
        </mxCell>
        <mxCell id="NfXFw1aVSQLSVC3R290Q-260" value="" parent="1" edge="1" source="NfXFw1aVSQLSVC3R290Q-199" style="endArrow=none;html=1;fontSize=15;fontColor=#004C99;exitX=0.5;exitY=0;exitDx=0;exitDy=0;strokeColor=#004C99;strokeWidth=4;">
          <mxGeometry as="geometry" relative="1" height="50" width="50">
            <mxPoint as="sourcePoint" y="291.18" x="-1893.9010071942445" />
            <mxPoint as="targetPoint" y="243" x="-1800" />
          </mxGeometry>
        </mxCell>
        <mxCell id="NfXFw1aVSQLSVC3R290Q-262" value="" parent="1" edge="1" target="NfXFw1aVSQLSVC3R290Q-200" style="endArrow=none;html=1;fontSize=15;fontColor=#004C99;entryX=0.5;entryY=0;entryDx=0;entryDy=0;strokeColor=#004C99;strokeWidth=4;">
          <mxGeometry as="geometry" relative="1" height="50" width="50">
            <mxPoint as="sourcePoint" y="243" x="-1717" />
            <mxPoint as="targetPoint" y="253.00000000000006" x="-1750" />
          </mxGeometry>
        </mxCell>
        <mxCell id="NfXFw1aVSQLSVC3R290Q-263" value="" parent="1" edge="1" target="NfXFw1aVSQLSVC3R290Q-202" style="endArrow=none;html=1;fontSize=15;fontColor=#004C99;entryX=0.5;entryY=0;entryDx=0;entryDy=0;strokeColor=#004C99;strokeWidth=4;">
          <mxGeometry as="geometry" relative="1" height="50" width="50">
            <mxPoint as="sourcePoint" y="243" x="-1676" />
            <mxPoint as="targetPoint" y="263.00000000000005" x="-1740" />
          </mxGeometry>
        </mxCell>
        <mxCell id="NfXFw1aVSQLSVC3R290Q-264" value="" parent="1" edge="1" source="NfXFw1aVSQLSVC3R290Q-191" style="endArrow=none;html=1;fontSize=15;fontColor=#004C99;exitX=0.5;exitY=0;exitDx=0;exitDy=0;strokeColor=#004C99;strokeWidth=4;">
          <mxGeometry as="geometry" relative="1" height="50" width="50">
            <mxPoint as="sourcePoint" y="253.00000000000006" x="-1666" />
            <mxPoint as="targetPoint" y="243" x="-1634" />
          </mxGeometry>
        </mxCell>
        <mxCell id="NfXFw1aVSQLSVC3R290Q-265" value="" parent="1" edge="1" target="NfXFw1aVSQLSVC3R290Q-198" style="endArrow=none;html=1;fontSize=15;fontColor=#004C99;entryX=0.5;entryY=0;entryDx=0;entryDy=0;strokeColor=#004C99;strokeWidth=4;">
          <mxGeometry as="geometry" relative="1" height="50" width="50">
            <mxPoint as="sourcePoint" y="243" x="-1593" />
            <mxPoint as="targetPoint" y="253.00000000000006" x="-1624" />
          </mxGeometry>
        </mxCell>
        <mxCell id="NfXFw1aVSQLSVC3R290Q-266" value="" parent="1" edge="1" source="NfXFw1aVSQLSVC3R290Q-194" style="endArrow=none;html=1;fontSize=15;fontColor=#004C99;exitX=0.5;exitY=0;exitDx=0;exitDy=0;strokeColor=#004C99;strokeWidth=4;">
          <mxGeometry as="geometry" relative="1" height="50" width="50">
            <mxPoint as="sourcePoint" y="253.00000000000006" x="-1583" />
            <mxPoint as="targetPoint" y="243" x="-1552" />
          </mxGeometry>
        </mxCell>
        <mxCell id="NfXFw1aVSQLSVC3R290Q-267" value="" parent="1" edge="1" source="NfXFw1aVSQLSVC3R290Q-192" style="endArrow=none;html=1;fontSize=15;fontColor=#004C99;exitX=0.5;exitY=0;exitDx=0;exitDy=0;strokeColor=#004C99;strokeWidth=4;">
          <mxGeometry as="geometry" relative="1" height="50" width="50">
            <mxPoint as="sourcePoint" y="319.66666666666663" x="-1541.5107913669062" />
            <mxPoint as="targetPoint" y="243" x="-1510" />
          </mxGeometry>
        </mxCell>
        <mxCell id="NfXFw1aVSQLSVC3R290Q-268" value="" parent="1" edge="1" target="NfXFw1aVSQLSVC3R290Q-190" style="endArrow=none;html=1;fontSize=15;fontColor=#004C99;entryX=0.5;entryY=0;entryDx=0;entryDy=0;strokeColor=#004C99;strokeWidth=4;">
          <mxGeometry as="geometry" relative="1" height="50" width="50">
            <mxPoint as="sourcePoint" y="243" x="-1469" />
            <mxPoint as="targetPoint" y="253.00000000000006" x="-1500" />
          </mxGeometry>
        </mxCell>
        <mxCell id="NfXFw1aVSQLSVC3R290Q-269" value="" parent="1" edge="1" source="NfXFw1aVSQLSVC3R290Q-197" style="endArrow=none;html=1;fontSize=15;fontColor=#004C99;exitX=0.5;exitY=0;exitDx=0;exitDy=0;strokeColor=#004C99;strokeWidth=4;">
          <mxGeometry as="geometry" relative="1" height="50" width="50">
            <mxPoint as="sourcePoint" y="253.00000000000006" x="-1459" />
            <mxPoint as="targetPoint" y="243" x="-1427" />
          </mxGeometry>
        </mxCell>
        <mxCell id="NfXFw1aVSQLSVC3R290Q-270" value="" parent="1" edge="1" target="NfXFw1aVSQLSVC3R290Q-244" style="endArrow=none;html=1;fontSize=15;fontColor=#004C99;entryX=0.478;entryY=-0.034;entryDx=0;entryDy=0;entryPerimeter=0;strokeColor=#004C99;strokeWidth=4;">
          <mxGeometry as="geometry" relative="1" height="50" width="50">
            <mxPoint as="sourcePoint" y="243" x="-1381" />
            <mxPoint as="targetPoint" y="253.00000000000006" x="-1417" />
          </mxGeometry>
        </mxCell>
        <mxCell id="NfXFw1aVSQLSVC3R290Q-271" value="" parent="1" edge="1" source="NfXFw1aVSQLSVC3R290Q-203" style="endArrow=none;html=1;fontSize=15;fontColor=#004C99;exitX=0.5;exitY=0;exitDx=0;exitDy=0;strokeColor=#004C99;strokeWidth=4;">
          <mxGeometry as="geometry" relative="1" height="50" width="50">
            <mxPoint as="sourcePoint" y="253.00000000000006" x="-1371" />
            <mxPoint as="targetPoint" y="243" x="-1344" />
          </mxGeometry>
        </mxCell>
        <mxCell id="NfXFw1aVSQLSVC3R290Q-272" value="" parent="1" edge="1" target="NfXFw1aVSQLSVC3R290Q-196" style="endArrow=none;html=1;fontSize=15;fontColor=#004C99;entryX=0.5;entryY=0;entryDx=0;entryDy=0;strokeColor=#004C99;strokeWidth=4;">
          <mxGeometry as="geometry" relative="1" height="50" width="50">
            <mxPoint as="sourcePoint" y="243" x="-1303" />
            <mxPoint as="targetPoint" y="253.00000000000006" x="-1334" />
          </mxGeometry>
        </mxCell>
        <mxCell id="NfXFw1aVSQLSVC3R290Q-273" value="" parent="1" edge="1" source="NfXFw1aVSQLSVC3R290Q-204" style="endArrow=none;html=1;fontSize=15;fontColor=#004C99;exitX=0.5;exitY=0;exitDx=0;exitDy=0;strokeColor=#004C99;strokeWidth=4;">
          <mxGeometry as="geometry" relative="1" height="50" width="50">
            <mxPoint as="sourcePoint" y="253.00000000000006" x="-1293" />
            <mxPoint as="targetPoint" y="243" x="-1261" />
          </mxGeometry>
        </mxCell>
        <mxCell id="NfXFw1aVSQLSVC3R290Q-274" value="" parent="1" edge="1" source="NfXFw1aVSQLSVC3R290Q-189" style="endArrow=none;html=1;fontSize=15;fontColor=#004C99;exitX=0.5;exitY=0;exitDx=0;exitDy=0;strokeColor=#004C99;strokeWidth=4;">
          <mxGeometry as="geometry" relative="1" height="50" width="50">
            <mxPoint as="sourcePoint" y="273" x="-1251.4388489208634" />
            <mxPoint as="targetPoint" y="243" x="-1220" />
          </mxGeometry>
        </mxCell>
        <mxCell id="NfXFw1aVSQLSVC3R290Q-275" value="" parent="1" edge="1" target="NfXFw1aVSQLSVC3R290Q-188" style="endArrow=none;html=1;fontSize=15;fontColor=#004C99;entryX=0.5;entryY=0;entryDx=0;entryDy=0;strokeColor=#004C99;strokeWidth=4;">
          <mxGeometry as="geometry" relative="1" height="50" width="50">
            <mxPoint as="sourcePoint" y="243" x="-1175" />
            <mxPoint as="targetPoint" y="253.00000000000006" x="-1210" />
          </mxGeometry>
        </mxCell>
        <mxCell id="NfXFw1aVSQLSVC3R290Q-276" value="" parent="1" edge="1" source="NfXFw1aVSQLSVC3R290Q-195" style="endArrow=none;html=1;fontSize=15;fontColor=#004C99;exitX=0.5;exitY=0;exitDx=0;exitDy=0;strokeColor=#004C99;strokeWidth=4;">
          <mxGeometry as="geometry" relative="1" height="50" width="50">
            <mxPoint as="sourcePoint" y="253.00000000000006" x="-1165" />
            <mxPoint as="targetPoint" y="243" x="-1137" />
          </mxGeometry>
        </mxCell>
        <mxCell id="NfXFw1aVSQLSVC3R290Q-277" value="" parent="1" edge="1" target="NfXFw1aVSQLSVC3R290Q-205" style="endArrow=none;html=1;fontSize=15;fontColor=#004C99;entryX=0.5;entryY=0;entryDx=0;entryDy=0;strokeColor=#004C99;strokeWidth=4;">
          <mxGeometry as="geometry" relative="1" height="50" width="50">
            <mxPoint as="sourcePoint" y="243" x="-1096" />
            <mxPoint as="targetPoint" y="253.00000000000006" x="-1126.9999999999997" />
          </mxGeometry>
        </mxCell>
        <mxCell id="NfXFw1aVSQLSVC3R290Q-278" value="" parent="1" edge="1" target="NfXFw1aVSQLSVC3R290Q-220" style="endArrow=none;html=1;fontSize=15;fontColor=#004C99;entryX=0.5;entryY=0;entryDx=0;entryDy=0;strokeColor=#004C99;strokeWidth=4;">
          <mxGeometry as="geometry" relative="1" height="50" width="50">
            <mxPoint as="sourcePoint" y="243" x="-1054" />
            <mxPoint as="targetPoint" y="273" x="-1085.68345323741" />
          </mxGeometry>
        </mxCell>
        <mxCell id="NfXFw1aVSQLSVC3R290Q-279" value="" parent="1" edge="1" target="NfXFw1aVSQLSVC3R290Q-231" style="endArrow=none;html=1;fontSize=15;fontColor=#004C99;entryX=0.5;entryY=0;entryDx=0;entryDy=0;strokeColor=#004C99;strokeWidth=4;">
          <mxGeometry as="geometry" relative="1" height="50" width="50">
            <mxPoint as="sourcePoint" y="243" x="-1013" />
            <mxPoint as="targetPoint" y="319.66666666666663" x="-1044.2446043165464" />
          </mxGeometry>
        </mxCell>
        <mxCell id="NfXFw1aVSQLSVC3R290Q-280" value="" parent="1" edge="1" target="NfXFw1aVSQLSVC3R290Q-232" style="endArrow=none;html=1;fontSize=15;fontColor=#004C99;entryX=0.487;entryY=-0.04;entryDx=0;entryDy=0;entryPerimeter=0;strokeColor=#004C99;strokeWidth=4;">
          <mxGeometry as="geometry" relative="1" height="50" width="50">
            <mxPoint as="sourcePoint" y="243" x="-972" />
            <mxPoint as="targetPoint" y="366.3333333333333" x="-1002.8057553956833" />
          </mxGeometry>
        </mxCell>
        <mxCell id="NfXFw1aVSQLSVC3R290Q-281" value="" parent="1" edge="1" target="NfXFw1aVSQLSVC3R290Q-233" style="endArrow=none;html=1;fontSize=15;fontColor=#004C99;entryX=0.5;entryY=0;entryDx=0;entryDy=0;strokeColor=#004C99;strokeWidth=4;">
          <mxGeometry as="geometry" relative="1" height="50" width="50">
            <mxPoint as="sourcePoint" y="243" x="-930" />
            <mxPoint as="targetPoint" y="317.79999999999995" x="-961.7709352517986" />
          </mxGeometry>
        </mxCell>
        <mxCell id="NfXFw1aVSQLSVC3R290Q-282" value="" parent="1" edge="1" target="NfXFw1aVSQLSVC3R290Q-234" style="endArrow=none;html=1;fontSize=15;fontColor=#004C99;entryX=0.5;entryY=0;entryDx=0;entryDy=0;strokeColor=#004C99;strokeWidth=4;">
          <mxGeometry as="geometry" relative="1" height="50" width="50">
            <mxPoint as="sourcePoint" y="243" x="-888" />
            <mxPoint as="targetPoint" y="273" x="-919.9280575539569" />
          </mxGeometry>
        </mxCell>
        <mxCell id="NfXFw1aVSQLSVC3R290Q-283" value="" parent="1" edge="1" target="NfXFw1aVSQLSVC3R290Q-235" style="endArrow=none;html=1;fontSize=15;fontColor=#004C99;entryX=0.5;entryY=0;entryDx=0;entryDy=0;strokeColor=#004C99;strokeWidth=4;">
          <mxGeometry as="geometry" relative="1" height="50" width="50">
            <mxPoint as="sourcePoint" y="243" x="-847" />
            <mxPoint as="targetPoint" y="319.66666666666663" x="-878.4892086330935" />
          </mxGeometry>
        </mxCell>
        <mxCell id="NfXFw1aVSQLSVC3R290Q-284" value="" parent="1" edge="1" target="NfXFw1aVSQLSVC3R290Q-236" style="endArrow=none;html=1;fontSize=15;fontColor=#004C99;entryX=0.565;entryY=0.02;entryDx=0;entryDy=0;entryPerimeter=0;strokeColor=#004C99;strokeWidth=4;">
          <mxGeometry as="geometry" relative="1" height="50" width="50">
            <mxPoint as="sourcePoint" y="243" x="-804" />
            <mxPoint as="targetPoint" y="366.3333333333333" x="-837.0503597122301" />
          </mxGeometry>
        </mxCell>
        <mxCell id="NfXFw1aVSQLSVC3R290Q-285" value="" parent="1" edge="1" target="NfXFw1aVSQLSVC3R290Q-237" style="endArrow=none;html=1;fontSize=15;fontColor=#004C99;entryX=0.5;entryY=0;entryDx=0;entryDy=0;strokeColor=#004C99;strokeWidth=4;">
          <mxGeometry as="geometry" relative="1" height="50" width="50">
            <mxPoint as="sourcePoint" y="243" x="-764" />
            <mxPoint as="targetPoint" y="320.5999999999999" x="-793.5913669064748" />
          </mxGeometry>
        </mxCell>
        <mxCell id="NfXFw1aVSQLSVC3R290Q-286" value="" parent="1" edge="1" target="NfXFw1aVSQLSVC3R290Q-238" style="endArrow=none;html=1;fontSize=15;fontColor=#004C99;entryX=0.482;entryY=-0.04;entryDx=0;entryDy=0;entryPerimeter=0;strokeColor=#004C99;strokeWidth=4;">
          <mxGeometry as="geometry" relative="1" height="50" width="50">
            <mxPoint as="sourcePoint" y="243" x="-723" />
            <mxPoint as="targetPoint" y="273" x="-754.1726618705036" />
          </mxGeometry>
        </mxCell>
        <mxCell id="NfXFw1aVSQLSVC3R290Q-287" value="" parent="1" edge="1" target="NfXFw1aVSQLSVC3R290Q-239" style="endArrow=none;html=1;fontSize=15;fontColor=#004C99;entryX=0.5;entryY=0;entryDx=0;entryDy=0;strokeColor=#004C99;strokeWidth=4;">
          <mxGeometry as="geometry" relative="1" height="50" width="50">
            <mxPoint as="sourcePoint" y="243" x="-681" />
            <mxPoint as="targetPoint" y="317.79999999999995" x="-713.2932374100717" />
          </mxGeometry>
        </mxCell>
        <mxCell id="NfXFw1aVSQLSVC3R290Q-288" value="" parent="1" edge="1" target="NfXFw1aVSQLSVC3R290Q-240" style="endArrow=none;html=1;fontSize=15;fontColor=#004C99;entryX=0.5;entryY=0;entryDx=0;entryDy=0;strokeColor=#004C99;strokeWidth=4;">
          <mxGeometry as="geometry" relative="1" height="50" width="50">
            <mxPoint as="sourcePoint" y="243" x="-640" />
            <mxPoint as="targetPoint" y="366.3333333333333" x="-671.294964028777" />
          </mxGeometry>
        </mxCell>
        <mxCell id="NfXFw1aVSQLSVC3R290Q-289" value="" parent="1" edge="1" target="NfXFw1aVSQLSVC3R290Q-241" style="endArrow=none;html=1;fontSize=15;fontColor=#004C99;entryX=0.5;entryY=0;entryDx=0;entryDy=0;strokeColor=#004C99;strokeWidth=4;">
          <mxGeometry as="geometry" relative="1" height="50" width="50">
            <mxPoint as="sourcePoint" y="243" x="-598" />
            <mxPoint as="targetPoint" y="319.66666666666663" x="-629.8561151079139" />
          </mxGeometry>
        </mxCell>
        <mxCell id="NfXFw1aVSQLSVC3R290Q-290" value="" parent="1" edge="1" target="NfXFw1aVSQLSVC3R290Q-242" style="endArrow=none;html=1;fontSize=15;fontColor=#004C99;entryX=0.5;entryY=0;entryDx=0;entryDy=0;strokeColor=#004C99;strokeWidth=4;">
          <mxGeometry as="geometry" relative="1" height="50" width="50">
            <mxPoint as="sourcePoint" y="243" x="-557" />
            <mxPoint as="targetPoint" y="273" x="-588.4172661870502" />
          </mxGeometry>
        </mxCell>
        <mxCell id="NfXFw1aVSQLSVC3R290Q-291" value="" parent="1" edge="1" target="NfXFw1aVSQLSVC3R290Q-243" style="endArrow=none;html=1;fontSize=15;fontColor=#004C99;entryX=0.5;entryY=0;entryDx=0;entryDy=0;strokeColor=#004C99;strokeWidth=4;">
          <mxGeometry as="geometry" relative="1" height="50" width="50">
            <mxPoint as="sourcePoint" y="243" x="-511" />
            <mxPoint as="targetPoint" y="319.66666666666663" x="-541.9784172661871" />
          </mxGeometry>
        </mxCell>
        <mxCell id="NfXFw1aVSQLSVC3R290Q-502" value="&lt;ol&gt;&lt;li&gt;BD_JCDT&lt;/li&gt;&lt;li&gt;CATALOGOS&lt;/li&gt;&lt;li&gt;db_A_Quejas_Reparaciones&lt;/li&gt;&lt;li&gt;DB_Agenda_Diaria&lt;/li&gt;&lt;li&gt;DB_Domicilios&lt;/li&gt;&lt;li&gt;db_GAS&lt;/li&gt;&lt;li&gt;DB_Incumplimientos_Serv&lt;/li&gt;&lt;li&gt;DB_KM_Repa&lt;/li&gt;&lt;li&gt;db_Origen&lt;/li&gt;&lt;li&gt;db_PCSuscriptores&lt;/li&gt;&lt;li&gt;DB_Project_ServiciosCC_CA&lt;/li&gt;&lt;li&gt;db_Promociones&lt;/li&gt;&lt;li&gt;db_Ranking_M_CA&lt;/li&gt;&lt;li&gt;db_Recargas&lt;/li&gt;&lt;li&gt;db_Recurrencia_Recargas&lt;/li&gt;&lt;li&gt;DB_Reporte_LNBs&lt;/li&gt;&lt;li&gt;DB_Semaforo&lt;/li&gt;&lt;li&gt;db_SMS&lt;/li&gt;&lt;li&gt;EUCR_Operaciones&lt;/li&gt;&lt;li&gt;INGRESOS_CSS&lt;/li&gt;&lt;li&gt;Marcador&lt;/li&gt;&lt;li&gt;QUEJAS_GESTOR&lt;/li&gt;&lt;li&gt;Recuperaciones_CA&lt;/li&gt;&lt;li&gt;ReportServer&lt;/li&gt;&lt;li&gt;ReportServerTempDB&lt;/li&gt;&lt;li&gt;SADFSADFAS&lt;/li&gt;&lt;li&gt;test&lt;/li&gt;&lt;/ol&gt;" parent="1" style="text;html=1;strokeColor=none;fillColor=none;align=left;verticalAlign=middle;whiteSpace=wrap;rounded=0;labelBackgroundColor=none;fontSize=15;fontColor=#004C99;textDirection=ltr;labelPosition=left;verticalLabelPosition=middle;" vertex="1">
          <mxGeometry as="geometry" y="453" x="860" height="20" width="40" />
        </mxCell>
        <mxCell id="NfXFw1aVSQLSVC3R290Q-503" value="Recargas" parent="1" style="shape=process;whiteSpace=wrap;html=1;backgroundOutline=1;labelBackgroundColor=none;strokeColor=#d6b656;strokeWidth=3;fontSize=15;align=center;fillColor=#fff2cc;" vertex="1">
          <mxGeometry as="geometry" y="563" x="129.42000000000007" height="60" width="120" />
        </mxCell>
        <mxCell id="NfXFw1aVSQLSVC3R290Q-505" parent="1" edge="1" target="NfXFw1aVSQLSVC3R290Q-503" source="NfXFw1aVSQLSVC3R290Q-457" style="edgeStyle=none;rounded=0;orthogonalLoop=1;jettySize=auto;html=1;exitX=0.5;exitY=1;exitDx=0;exitDy=0;entryX=0.5;entryY=0;entryDx=0;entryDy=0;strokeColor=#D6B656;strokeWidth=4;fontSize=15;fontColor=#9673A6;">
          <mxGeometry as="geometry" relative="1" />
        </mxCell>
        <mxCell id="NfXFw1aVSQLSVC3R290Q-506" value="Servicios con&lt;br&gt;Costo CA" parent="1" style="shape=process;whiteSpace=wrap;html=1;backgroundOutline=1;labelBackgroundColor=none;strokeColor=#788A51;strokeWidth=3;fontSize=15;align=center;fillColor=#CDEB8B;" vertex="1">
          <mxGeometry as="geometry" y="669" x="-7.4099999999998545" height="60" width="139.93" />
        </mxCell>
        <mxCell id="NfXFw1aVSQLSVC3R290Q-509" parent="1" edge="1" target="NfXFw1aVSQLSVC3R290Q-506" source="NfXFw1aVSQLSVC3R290Q-430" style="edgeStyle=none;rounded=0;orthogonalLoop=1;jettySize=auto;html=1;exitX=0.5;exitY=1;exitDx=0;exitDy=0;entryX=0.5;entryY=0;entryDx=0;entryDy=0;strokeColor=#788A51;strokeWidth=4;fontSize=15;fontColor=#9673A6;">
          <mxGeometry as="geometry" relative="1" />
        </mxCell>
        <mxCell id="NfXFw1aVSQLSVC3R290Q-507" value="&lt;font color=&quot;#10739e&quot;&gt;Comunicados&lt;/font&gt;" parent="1" style="shape=ellipse;html=1;dashed=0;whitespace=wrap;aspect=fixed;perimeter=ellipsePerimeter;labelBackgroundColor=none;strokeColor=#6c8ebf;strokeWidth=3;fontSize=15;align=center;fillColor=#dae8fc;" vertex="1">
          <mxGeometry as="geometry" y="103" x="417.34000000000014" height="104" width="104" />
        </mxCell>
        <mxCell id="NfXFw1aVSQLSVC3R290Q-510" value="Penalizaciones México" parent="1" style="shape=process;whiteSpace=wrap;html=1;backgroundOutline=1;labelBackgroundColor=none;strokeColor=#6C8EBF;strokeWidth=3;fontSize=15;align=center;fillColor=#cce5ff;" vertex="1">
          <mxGeometry as="geometry" y="614" x="-176.6500000000001" height="60" width="141.65" />
        </mxCell>
        <mxCell id="NfXFw1aVSQLSVC3R290Q-512" parent="1" edge="1" target="NfXFw1aVSQLSVC3R290Q-510" source="NfXFw1aVSQLSVC3R290Q-439" style="edgeStyle=none;rounded=0;orthogonalLoop=1;jettySize=auto;html=1;exitX=0.5;exitY=1;exitDx=0;exitDy=0;entryX=0.5;entryY=0;entryDx=0;entryDy=0;strokeColor=#6C8EBF;strokeWidth=4;fontSize=15;fontColor=#9673A6;">
          <mxGeometry as="geometry" relative="1" />
        </mxCell>
        <mxCell id="NfXFw1aVSQLSVC3R290Q-513" value="Ingresos al centro de servicio" parent="1" style="shape=process;whiteSpace=wrap;html=1;backgroundOutline=1;labelBackgroundColor=none;strokeColor=#C98F58;strokeWidth=3;fontSize=15;align=center;fillColor=#FFCC99;" vertex="1">
          <mxGeometry as="geometry" y="633" x="583.0900000000001" height="60" width="139.93" />
        </mxCell>
        <mxCell id="NfXFw1aVSQLSVC3R290Q-515" parent="1" edge="1" target="NfXFw1aVSQLSVC3R290Q-513" source="NfXFw1aVSQLSVC3R290Q-432" style="edgeStyle=none;rounded=0;orthogonalLoop=1;jettySize=auto;html=1;exitX=0.5;exitY=1;exitDx=0;exitDy=0;entryX=0.5;entryY=0;entryDx=0;entryDy=0;strokeColor=#C98F58;strokeWidth=4;fontSize=15;fontColor=#9673A6;">
          <mxGeometry as="geometry" relative="1" />
        </mxCell>
        <mxCell id="NfXFw1aVSQLSVC3R290Q-516" value="Ranking CA" parent="1" style="shape=process;whiteSpace=wrap;html=1;backgroundOutline=1;labelBackgroundColor=none;strokeColor=#A680B8;strokeWidth=3;fontSize=15;align=center;fillColor=#E5CCFF;" vertex="1">
          <mxGeometry as="geometry" y="858" x="70.21000000000003" height="60" width="139.93" />
        </mxCell>
        <mxCell id="NfXFw1aVSQLSVC3R290Q-519" value="Kilometraje" parent="1" style="shape=process;whiteSpace=wrap;html=1;backgroundOutline=1;labelBackgroundColor=none;strokeColor=#00994D;strokeWidth=3;fontSize=15;align=center;fillColor=#99FFCC;" vertex="1">
          <mxGeometry as="geometry" y="784" x="-136.98000000000002" height="60" width="139.93" />
        </mxCell>
        <mxCell id="NfXFw1aVSQLSVC3R290Q-522" parent="1" edge="1" target="NfXFw1aVSQLSVC3R290Q-382" source="NfXFw1aVSQLSVC3R290Q-195" style="edgeStyle=none;rounded=0;orthogonalLoop=1;jettySize=auto;html=1;exitX=0.5;exitY=1;exitDx=0;exitDy=0;entryX=0.5;entryY=0;entryDx=0;entryDy=0;strokeColor=#d6b656;strokeWidth=4;fontSize=15;fontColor=#9673A6;fillColor=#fff2cc;">
          <mxGeometry as="geometry" relative="1">
            <mxPoint as="sourcePoint" y="563" x="-728.2699999999613" />
            <mxPoint as="targetPoint" y="623" x="-591.4400000000005" />
          </mxGeometry>
        </mxCell>
        <mxCell id="NfXFw1aVSQLSVC3R290Q-524" parent="1" edge="1" target="NfXFw1aVSQLSVC3R290Q-382" source="NfXFw1aVSQLSVC3R290Q-188" style="edgeStyle=none;rounded=0;orthogonalLoop=1;jettySize=auto;html=1;exitX=0.5;exitY=1;exitDx=0;exitDy=0;entryX=0.5;entryY=0;entryDx=0;entryDy=0;strokeColor=#9673a6;strokeWidth=4;fontSize=15;fontColor=#9673A6;fillColor=#e1d5e7;">
          <mxGeometry as="geometry" relative="1">
            <mxPoint as="sourcePoint" y="603.3050865276123" x="-744.9649134723886" />
            <mxPoint as="targetPoint" y="843" x="-543.96" />
          </mxGeometry>
        </mxCell>
        <mxCell id="NfXFw1aVSQLSVC3R290Q-525" parent="1" edge="1" target="NfXFw1aVSQLSVC3R290Q-382" source="NfXFw1aVSQLSVC3R290Q-220" style="edgeStyle=none;rounded=0;orthogonalLoop=1;jettySize=auto;html=1;exitX=0.5;exitY=1;exitDx=0;exitDy=0;entryX=0.5;entryY=0;entryDx=0;entryDy=0;strokeColor=#82b366;strokeWidth=4;fontSize=15;fontColor=#9673A6;fillColor=#d5e8d4;">
          <mxGeometry as="geometry" relative="1">
            <mxPoint as="sourcePoint" y="620.0000000000002" x="-785.2700000000004" />
            <mxPoint as="targetPoint" y="723" x="-1020" />
          </mxGeometry>
        </mxCell>
        <mxCell id="NfXFw1aVSQLSVC3R290Q-527" parent="1" edge="1" target="NfXFw1aVSQLSVC3R290Q-382" source="NfXFw1aVSQLSVC3R290Q-189" style="edgeStyle=none;rounded=0;orthogonalLoop=1;jettySize=auto;html=1;exitX=0.5;exitY=1;exitDx=0;exitDy=0;entryX=0.5;entryY=0;entryDx=0;entryDy=0;strokeColor=#0e8088;strokeWidth=4;fontSize=15;fontColor=#9673A6;fillColor=#b0e3e6;">
          <mxGeometry as="geometry" relative="1">
            <mxPoint as="sourcePoint" y="603.3050865276116" x="-825.5750865276122" />
            <mxPoint as="targetPoint" y="893" x="-990" />
          </mxGeometry>
        </mxCell>
        <mxCell id="NfXFw1aVSQLSVC3R290Q-528" parent="1" edge="1" target="NfXFw1aVSQLSVC3R290Q-318" source="NfXFw1aVSQLSVC3R290Q-382" style="edgeStyle=none;rounded=0;orthogonalLoop=1;jettySize=auto;html=1;entryX=0.5;entryY=0;entryDx=0;entryDy=0;strokeColor=#d79b00;strokeWidth=4;fontSize=15;fontColor=#9673A6;fillColor=#ffe6cc;exitX=0.287;exitY=0.955;exitDx=0;exitDy=0;exitPerimeter=0;">
          <mxGeometry as="geometry" relative="1">
            <mxPoint as="sourcePoint" y="394.33333333333325" x="-1836.765539568345" />
            <mxPoint as="targetPoint" y="607" x="-1219.19" />
          </mxGeometry>
        </mxCell>
        <mxCell id="NfXFw1aVSQLSVC3R290Q-529" parent="1" edge="1" target="NfXFw1aVSQLSVC3R290Q-382" source="NfXFw1aVSQLSVC3R290Q-204" style="edgeStyle=none;rounded=0;orthogonalLoop=1;jettySize=auto;html=1;exitX=0.5;exitY=1;exitDx=0;exitDy=0;entryX=0.5;entryY=0;entryDx=0;entryDy=0;strokeColor=#6c8ebf;strokeWidth=4;fontSize=15;fontColor=#9673A6;fillColor=#dae8fc;">
          <mxGeometry as="geometry" relative="1">
            <mxPoint as="sourcePoint" y="636" x="-810.00000000004" />
            <mxPoint as="targetPoint" y="683" x="-1640.0000000000004" />
          </mxGeometry>
        </mxCell>
        <mxCell id="NfXFw1aVSQLSVC3R290Q-382" value="&lt;font color=&quot;#004c99&quot; style=&quot;font-size: 24px&quot;&gt;Proyecto Final&lt;br&gt;Macros&lt;/font&gt;" parent="1" style="shape=ellipse;html=1;dashed=0;whitespace=wrap;aspect=fixed;perimeter=ellipsePerimeter;labelBackgroundColor=none;strokeColor=#6c8ebf;strokeWidth=9;fontSize=15;align=center;fillColor=#FFFFFF;" vertex="1">
          <mxGeometry as="geometry" y="593.19" x="-1328.78" height="197.81" width="197.81" />
        </mxCell>
        <mxCell id="NfXFw1aVSQLSVC3R290Q-362" parent="1" edge="1" target="NfXFw1aVSQLSVC3R290Q-382" source="NfXFw1aVSQLSVC3R290Q-196" style="edgeStyle=none;rounded=0;orthogonalLoop=1;jettySize=auto;html=1;exitX=0.5;exitY=1;exitDx=0;exitDy=0;entryX=0.5;entryY=0;entryDx=0;entryDy=0;strokeColor=#FF0080;strokeWidth=4;fontSize=15;fontColor=#9673A6;fillColor=#ffff88;">
          <mxGeometry as="geometry" relative="1" />
        </mxCell>
        <mxCell id="NfXFw1aVSQLSVC3R290Q-532" parent="1" edge="1" target="NfXFw1aVSQLSVC3R290Q-382" source="NfXFw1aVSQLSVC3R290Q-232" style="edgeStyle=none;rounded=0;orthogonalLoop=1;jettySize=auto;html=1;exitX=0.5;exitY=1;exitDx=0;exitDy=0;entryX=0.5;entryY=0;entryDx=0;entryDy=0;strokeColor=#666666;strokeWidth=4;fontSize=15;fontColor=#9673A6;fillColor=#f5f5f5;">
          <mxGeometry as="geometry" relative="1">
            <mxPoint as="sourcePoint" y="795.1173099999999" x="-1303.42634" />
            <mxPoint as="targetPoint" y="1203" x="-1585.9700000000002" />
          </mxGeometry>
        </mxCell>
        <mxCell id="NfXFw1aVSQLSVC3R290Q-575" parent="1" edge="1" target="NfXFw1aVSQLSVC3R290Q-382" source="NfXFw1aVSQLSVC3R290Q-238" style="edgeStyle=none;rounded=0;orthogonalLoop=1;jettySize=auto;html=1;exitX=0.5;exitY=1;exitDx=0;exitDy=0;entryX=0.5;entryY=0;entryDx=0;entryDy=0;strokeColor=#0000FF;strokeWidth=4;fontSize=15;fontColor=#9673A6;">
          <mxGeometry as="geometry" relative="1" />
        </mxCell>
        <mxCell id="NfXFw1aVSQLSVC3R290Q-320" parent="1" edge="1" target="NfXFw1aVSQLSVC3R290Q-382" source="NfXFw1aVSQLSVC3R290Q-244" style="edgeStyle=none;rounded=0;orthogonalLoop=1;jettySize=auto;html=1;exitX=0.5;exitY=1;exitDx=0;exitDy=0;entryX=0.5;entryY=0;entryDx=0;entryDy=0;strokeColor=#d79b00;strokeWidth=4;fontSize=15;fontColor=#9673A6;fillColor=#ffe6cc;">
          <mxGeometry as="geometry" relative="1" />
        </mxCell>
        <mxCell id="NfXFw1aVSQLSVC3R290Q-333" parent="1" edge="1" target="NfXFw1aVSQLSVC3R290Q-331" source="NfXFw1aVSQLSVC3R290Q-382" style="edgeStyle=none;rounded=0;orthogonalLoop=1;jettySize=auto;html=1;exitX=0.5;exitY=1;exitDx=0;exitDy=0;entryX=0.5;entryY=0;entryDx=0;entryDy=0;strokeColor=#0E8088;strokeWidth=4;fontSize=15;fontColor=#9673A6;fillColor=#fff2cc;">
          <mxGeometry as="geometry" relative="1" />
        </mxCell>
        <mxCell id="NfXFw1aVSQLSVC3R290Q-337" parent="1" edge="1" target="NfXFw1aVSQLSVC3R290Q-335" source="NfXFw1aVSQLSVC3R290Q-382" style="edgeStyle=none;rounded=0;orthogonalLoop=1;jettySize=auto;html=1;exitX=0.5;exitY=1;exitDx=0;exitDy=0;entryX=0.5;entryY=0;entryDx=0;entryDy=0;strokeColor=#0E8088;strokeWidth=4;fontSize=15;fontColor=#9673A6;fillColor=#fff2cc;">
          <mxGeometry as="geometry" relative="1" />
        </mxCell>
        <mxCell id="NfXFw1aVSQLSVC3R290Q-347" parent="1" edge="1" target="NfXFw1aVSQLSVC3R290Q-345" source="NfXFw1aVSQLSVC3R290Q-382" style="edgeStyle=none;rounded=0;orthogonalLoop=1;jettySize=auto;html=1;exitX=0;exitY=0;exitDx=0;exitDy=0;entryX=0.5;entryY=0;entryDx=0;entryDy=0;strokeColor=#666666;strokeWidth=4;fontSize=15;fontColor=#9673A6;fillColor=#f5f5f5;">
          <mxGeometry as="geometry" relative="1" />
        </mxCell>
        <mxCell id="NfXFw1aVSQLSVC3R290Q-349" parent="1" edge="1" target="NfXFw1aVSQLSVC3R290Q-345" source="NfXFw1aVSQLSVC3R290Q-382" style="edgeStyle=none;rounded=0;orthogonalLoop=1;jettySize=auto;html=1;exitX=0;exitY=0.5;exitDx=0;exitDy=0;entryX=0.5;entryY=0;entryDx=0;entryDy=0;strokeColor=#6c8ebf;strokeWidth=4;fontSize=15;fontColor=#9673A6;fillColor=#dae8fc;">
          <mxGeometry as="geometry" relative="1" />
        </mxCell>
        <mxCell id="NfXFw1aVSQLSVC3R290Q-373" parent="1" edge="1" target="NfXFw1aVSQLSVC3R290Q-371" source="NfXFw1aVSQLSVC3R290Q-382" style="edgeStyle=none;rounded=0;orthogonalLoop=1;jettySize=auto;html=1;exitX=0;exitY=0.5;exitDx=0;exitDy=0;entryX=0.5;entryY=0;entryDx=0;entryDy=0;strokeColor=#6c8ebf;strokeWidth=4;fontSize=15;fontColor=#9673A6;fillColor=#dae8fc;">
          <mxGeometry as="geometry" relative="1" />
        </mxCell>
        <mxCell id="NfXFw1aVSQLSVC3R290Q-377" parent="1" edge="1" target="NfXFw1aVSQLSVC3R290Q-375" source="NfXFw1aVSQLSVC3R290Q-382" style="edgeStyle=none;rounded=0;orthogonalLoop=1;jettySize=auto;html=1;entryX=0.5;entryY=0;entryDx=0;entryDy=0;strokeColor=#0e8088;strokeWidth=4;fontSize=15;fontColor=#9673A6;fillColor=#b0e3e6;exitX=0.5;exitY=1;exitDx=0;exitDy=0;">
          <mxGeometry as="geometry" relative="1" />
        </mxCell>
        <mxCell id="NfXFw1aVSQLSVC3R290Q-534" parent="1" edge="1" target="NfXFw1aVSQLSVC3R290Q-382" source="NfXFw1aVSQLSVC3R290Q-235" style="edgeStyle=none;rounded=0;orthogonalLoop=1;jettySize=auto;html=1;exitX=0.5;exitY=1;exitDx=0;exitDy=0;strokeColor=#b85450;strokeWidth=4;fontSize=15;fontColor=#9673A6;fillColor=#f8cecc;entryX=0.5;entryY=0;entryDx=0;entryDy=0;">
          <mxGeometry as="geometry" relative="1">
            <mxPoint as="sourcePoint" y="403" x="-847.0503597122306" />
            <mxPoint as="targetPoint" y="583" x="-1230" />
          </mxGeometry>
        </mxCell>
        <mxCell id="NfXFw1aVSQLSVC3R290Q-536" parent="1" edge="1" target="NfXFw1aVSQLSVC3R290Q-382" style="edgeStyle=none;rounded=0;orthogonalLoop=1;jettySize=auto;html=1;entryX=0.5;entryY=0;entryDx=0;entryDy=0;strokeColor=#36393d;strokeWidth=4;fontSize=15;fontColor=#9673A6;fillColor=#cdeb8b;">
          <mxGeometry as="geometry" relative="1">
            <mxPoint as="sourcePoint" y="403" x="-1510" />
            <mxPoint as="targetPoint" y="1233" x="-1640.0000000000004" />
          </mxGeometry>
        </mxCell>
        <mxCell id="NfXFw1aVSQLSVC3R290Q-541" value="&lt;font color=&quot;#000000&quot;&gt;Revista Diaria &amp;amp; Mensual&lt;/font&gt;" parent="1" style="shape=process;whiteSpace=wrap;html=1;backgroundOutline=1;labelBackgroundColor=none;strokeColor=#A2BA6E;strokeWidth=3;fontSize=15;align=center;fillColor=#CDEB8B;" vertex="1">
          <mxGeometry as="geometry" y="770" x="-710.0000000000001" height="60" width="130" />
        </mxCell>
        <mxCell id="NfXFw1aVSQLSVC3R290Q-542" value="&lt;font color=&quot;#000000&quot;&gt;Combos&lt;/font&gt;" parent="1" style="shape=process;whiteSpace=wrap;html=1;backgroundOutline=1;labelBackgroundColor=none;strokeColor=#A2BA6E;strokeWidth=3;fontSize=15;align=center;fillColor=#CDEB8B;fontColor=#9673A6;" vertex="1">
          <mxGeometry as="geometry" y="900" x="-746.8300000000001" height="60" width="120" />
        </mxCell>
        <mxCell id="NfXFw1aVSQLSVC3R290Q-543" value="&lt;font color=&quot;#000000&quot;&gt;IRDS&lt;/font&gt;" parent="1" style="shape=process;whiteSpace=wrap;html=1;backgroundOutline=1;labelBackgroundColor=none;strokeColor=#A2BA6E;strokeWidth=3;fontSize=15;align=center;fillColor=#CDEB8B;fontColor=#9673A6;" vertex="1">
          <mxGeometry as="geometry" y="960" x="-910" height="60" width="120" />
        </mxCell>
        <mxCell id="NfXFw1aVSQLSVC3R290Q-544" value="&lt;font color=&quot;#788a51&quot;&gt;Update&lt;br&gt;Siebel &amp;amp; Heat&lt;/font&gt;" parent="1" style="shape=ellipse;html=1;dashed=0;whitespace=wrap;aspect=fixed;perimeter=ellipsePerimeter;labelBackgroundColor=none;strokeColor=#A2BA6E;strokeWidth=4;fontSize=15;align=center;fillColor=#CDEB8B;" vertex="1">
          <mxGeometry as="geometry" y="750" x="-959.9999999999999" height="118" width="118" />
        </mxCell>
        <mxCell id="NfXFw1aVSQLSVC3R290Q-327" parent="1" edge="1" target="NfXFw1aVSQLSVC3R290Q-544" source="NfXFw1aVSQLSVC3R290Q-382" style="edgeStyle=none;rounded=0;orthogonalLoop=1;jettySize=auto;html=1;strokeColor=#9673a6;strokeWidth=4;fontSize=15;fontColor=#9673A6;fillColor=#e1d5e7;entryX=0;entryY=0.5;entryDx=0;entryDy=0;">
          <mxGeometry as="geometry" relative="1">
            <mxPoint as="targetPoint" y="983" x="-660" />
          </mxGeometry>
        </mxCell>
        <mxCell id="NfXFw1aVSQLSVC3R290Q-551" parent="1" edge="1" source="NfXFw1aVSQLSVC3R290Q-544" style="edgeStyle=none;rounded=0;orthogonalLoop=1;jettySize=auto;html=1;strokeColor=#666666;strokeWidth=4;fontSize=15;fontColor=#9673A6;fillColor=#f5f5f5;exitX=1;exitY=0;exitDx=0;exitDy=0;">
          <mxGeometry as="geometry" relative="1">
            <mxPoint as="sourcePoint" y="173.33333333333348" x="-891.3669064748192" />
            <mxPoint as="targetPoint" y="770" x="-710" />
          </mxGeometry>
        </mxCell>
        <mxCell id="NfXFw1aVSQLSVC3R290Q-546" parent="1" edge="1" target="NfXFw1aVSQLSVC3R290Q-541" source="NfXFw1aVSQLSVC3R290Q-544" style="edgeStyle=none;rounded=0;orthogonalLoop=1;jettySize=auto;html=1;entryX=0;entryY=1;entryDx=0;entryDy=0;strokeColor=#b85450;strokeWidth=4;fontSize=15;fontColor=#9673A6;fillColor=#f8cecc;exitX=1;exitY=0.5;exitDx=0;exitDy=0;">
          <mxGeometry as="geometry" relative="1">
            <mxPoint as="sourcePoint" y="870" x="-510" />
            <mxPoint as="targetPoint" y="790" x="-551.5200000000004" />
          </mxGeometry>
        </mxCell>
        <mxCell id="NfXFw1aVSQLSVC3R290Q-342" parent="1" edge="1" target="NfXFw1aVSQLSVC3R290Q-541" source="NfXFw1aVSQLSVC3R290Q-544" style="edgeStyle=none;rounded=0;orthogonalLoop=1;jettySize=auto;html=1;strokeColor=#36393d;strokeWidth=4;fontSize=15;fontColor=#9673A6;fillColor=#cdeb8b;entryX=0;entryY=0.5;entryDx=0;entryDy=0;">
          <mxGeometry as="geometry" relative="1">
            <mxPoint as="sourcePoint" y="880" x="-510" />
            <mxPoint as="targetPoint" y="930" x="-530" />
          </mxGeometry>
        </mxCell>
        <mxCell id="NfXFw1aVSQLSVC3R290Q-548" parent="1" edge="1" target="NfXFw1aVSQLSVC3R290Q-541" source="NfXFw1aVSQLSVC3R290Q-544" style="edgeStyle=none;rounded=0;orthogonalLoop=1;jettySize=auto;html=1;entryX=0;entryY=0.5;entryDx=0;entryDy=0;strokeColor=#A2BA6E;strokeWidth=4;fontSize=15;fontColor=#9673A6;fillColor=#f8cecc;exitX=1;exitY=1;exitDx=0;exitDy=0;">
          <mxGeometry as="geometry" relative="1">
            <mxPoint as="sourcePoint" y="880" x="-500" />
            <mxPoint as="targetPoint" y="930" x="-408.96000000000003" />
          </mxGeometry>
        </mxCell>
        <mxCell id="NfXFw1aVSQLSVC3R290Q-549" parent="1" edge="1" target="NfXFw1aVSQLSVC3R290Q-542" source="NfXFw1aVSQLSVC3R290Q-544" style="edgeStyle=none;rounded=0;orthogonalLoop=1;jettySize=auto;html=1;entryX=0.5;entryY=0;entryDx=0;entryDy=0;strokeColor=#A2BA6E;strokeWidth=4;fontSize=15;fontColor=#9673A6;fillColor=#f8cecc;exitX=1;exitY=1;exitDx=0;exitDy=0;">
          <mxGeometry as="geometry" relative="1">
            <mxPoint as="sourcePoint" y="884.9899999999998" x="-504.6740000000009" />
            <mxPoint as="targetPoint" y="930" x="-408.96000000000003" />
          </mxGeometry>
        </mxCell>
        <mxCell id="NfXFw1aVSQLSVC3R290Q-550" parent="1" edge="1" target="NfXFw1aVSQLSVC3R290Q-543" style="edgeStyle=none;rounded=0;orthogonalLoop=1;jettySize=auto;html=1;entryX=0.5;entryY=0;entryDx=0;entryDy=0;strokeColor=#A2BA6E;strokeWidth=4;fontSize=15;fontColor=#9673A6;fillColor=#f8cecc;">
          <mxGeometry as="geometry" relative="1">
            <mxPoint as="sourcePoint" y="851" x="-860" />
            <mxPoint as="targetPoint" y="1010" x="-430.53999999999996" />
          </mxGeometry>
        </mxCell>
        <mxCell id="NfXFw1aVSQLSVC3R290Q-557" parent="1" edge="1" target="NfXFw1aVSQLSVC3R290Q-382" source="NfXFw1aVSQLSVC3R290Q-503" style="edgeStyle=none;rounded=0;orthogonalLoop=1;jettySize=auto;html=1;exitX=0;exitY=0.5;exitDx=0;exitDy=0;entryX=0.5;entryY=0;entryDx=0;entryDy=0;strokeColor=#C98F58;strokeWidth=4;fontSize=15;fontColor=#9673A6;dashed=1;">
          <mxGeometry as="geometry" relative="1" />
        </mxCell>
        <mxCell id="NfXFw1aVSQLSVC3R290Q-558" value="SMS" parent="1" style="shape=process;whiteSpace=wrap;html=1;backgroundOutline=1;labelBackgroundColor=none;strokeColor=#10739E;strokeWidth=3;fontSize=15;align=center;fillColor=#b1ddf0;" vertex="1">
          <mxGeometry as="geometry" y="545" x="301.50999999999976" height="60" width="96.98" />
        </mxCell>
        <mxCell id="NfXFw1aVSQLSVC3R290Q-562" value="&lt;font color=&quot;#7ea6e0&quot; style=&quot;font-size: 25px&quot;&gt;&lt;b&gt;1&lt;/b&gt;&lt;/font&gt;" parent="1" style="ellipse;whiteSpace=wrap;html=1;aspect=fixed;labelBackgroundColor=none;strokeColor=#7EA6E0;strokeWidth=4;fillColor=#FFFFFF;fontSize=15;fontColor=#9673A6;align=center;" vertex="1">
          <mxGeometry as="geometry" y="993" x="-1881.73" height="60" width="60" />
        </mxCell>
        <mxCell id="NfXFw1aVSQLSVC3R290Q-565" parent="1" edge="1" target="NfXFw1aVSQLSVC3R290Q-562" source="NfXFw1aVSQLSVC3R290Q-318" style="edgeStyle=none;rounded=0;orthogonalLoop=1;jettySize=auto;html=1;exitX=0;exitY=1;exitDx=0;exitDy=0;strokeColor=#D79B00;strokeWidth=4;fontSize=15;fontColor=#9673A6;entryX=0.5;entryY=0;entryDx=0;entryDy=0;">
          <mxGeometry as="geometry" relative="1">
            <mxPoint as="targetPoint" y="983" x="-1940.0000000000004" />
          </mxGeometry>
        </mxCell>
        <mxCell id="NfXFw1aVSQLSVC3R290Q-571" parent="1" edge="1" target="NfXFw1aVSQLSVC3R290Q-558" source="NfXFw1aVSQLSVC3R290Q-569" style="edgeStyle=none;rounded=0;orthogonalLoop=1;jettySize=auto;html=1;exitX=0.5;exitY=1;exitDx=0;exitDy=0;strokeColor=#7EA6E0;strokeWidth=4;fontSize=15;fontColor=#9673A6;entryX=0.5;entryY=0;entryDx=0;entryDy=0;">
          <mxGeometry as="geometry" relative="1">
            <mxPoint as="sourcePoint" y="641.67" x="660" />
            <mxPoint as="targetPoint" y="523" x="353" />
          </mxGeometry>
        </mxCell>
        <mxCell id="NfXFw1aVSQLSVC3R290Q-569" value="&lt;font color=&quot;#7ea6e0&quot; style=&quot;font-size: 25px&quot;&gt;&lt;b&gt;1&lt;/b&gt;&lt;/font&gt;" parent="1" style="ellipse;whiteSpace=wrap;html=1;aspect=fixed;labelBackgroundColor=none;strokeColor=#7EA6E0;strokeWidth=4;fillColor=#FFFFFF;fontSize=15;fontColor=#9673A6;align=center;" vertex="1">
          <mxGeometry as="geometry" y="438" x="325" height="50" width="50" />
        </mxCell>
        <mxCell id="NfXFw1aVSQLSVC3R290Q-581" value="&lt;b&gt;&lt;font color=&quot;#7ea6e0&quot; size=&quot;6&quot;&gt;2&lt;/font&gt;&lt;/b&gt;" parent="1" style="ellipse;whiteSpace=wrap;html=1;aspect=fixed;labelBackgroundColor=none;strokeColor=#7EA6E0;strokeWidth=4;fillColor=#FFFFFF;fontSize=15;fontColor=#9673A6;align=center;" vertex="1">
          <mxGeometry as="geometry" y="392" x="76.47000000000025" height="50" width="50" />
        </mxCell>
        <mxCell id="NfXFw1aVSQLSVC3R290Q-564" parent="1" edge="1" target="NfXFw1aVSQLSVC3R290Q-562" source="NfXFw1aVSQLSVC3R290Q-371" style="edgeStyle=none;rounded=0;orthogonalLoop=1;jettySize=auto;html=1;exitX=0;exitY=1;exitDx=0;exitDy=0;entryX=0.5;entryY=0;entryDx=0;entryDy=0;strokeColor=#7EA6E0;strokeWidth=4;fontSize=15;fontColor=#9673A6;">
          <mxGeometry as="geometry" relative="1" />
        </mxCell>
        <mxCell id="NfXFw1aVSQLSVC3R290Q-586" value="Promociones" parent="1" style="shape=process;whiteSpace=wrap;html=1;backgroundOutline=1;labelBackgroundColor=none;strokeColor=#FF8000;strokeWidth=3;fontSize=15;align=center;fillColor=#FFB366;" vertex="1">
          <mxGeometry as="geometry" y="486" x="39.38999999999987" height="60" width="125.69" />
        </mxCell>
        <mxCell id="NfXFw1aVSQLSVC3R290Q-587" value="&lt;b&gt;&lt;font color=&quot;#7ea6e0&quot; size=&quot;6&quot;&gt;2&lt;/font&gt;&lt;/b&gt;" parent="1" style="ellipse;whiteSpace=wrap;html=1;aspect=fixed;labelBackgroundColor=none;strokeColor=#7EA6E0;strokeWidth=4;fillColor=#FFFFFF;fontSize=15;fontColor=#9673A6;align=center;" vertex="1">
          <mxGeometry as="geometry" y="1173" x="-1268.78" height="60" width="60" />
        </mxCell>
        <mxCell id="NfXFw1aVSQLSVC3R290Q-592" value="&lt;font color=&quot;#7ea6e0&quot; style=&quot;font-size: 25px&quot;&gt;3&lt;/font&gt;" parent="1" style="ellipse;whiteSpace=wrap;html=1;aspect=fixed;labelBackgroundColor=none;strokeColor=#7EA6E0;strokeWidth=4;fillColor=#FFFFFF;fontSize=15;fontColor=#9673A6;align=center;" vertex="1">
          <mxGeometry as="geometry" y="683" x="224" height="50" width="50" />
        </mxCell>
        <mxCell id="NfXFw1aVSQLSVC3R290Q-593" parent="1" edge="1" target="NfXFw1aVSQLSVC3R290Q-592" source="NfXFw1aVSQLSVC3R290Q-503" style="edgeStyle=none;rounded=0;orthogonalLoop=1;jettySize=auto;html=1;exitX=1;exitY=1;exitDx=0;exitDy=0;strokeColor=#7EA6E0;strokeWidth=4;fontSize=15;fontColor=#9673A6;entryX=0.5;entryY=0;entryDx=0;entryDy=0;">
          <mxGeometry as="geometry" relative="1">
            <mxPoint as="sourcePoint" y="498" x="360" />
            <mxPoint as="targetPoint" y="555" x="360.0000000000009" />
          </mxGeometry>
        </mxCell>
        <mxCell id="NfXFw1aVSQLSVC3R290Q-594" value="&lt;font color=&quot;#7ea6e0&quot; style=&quot;font-size: 32px&quot;&gt;&lt;b&gt;3&lt;/b&gt;&lt;/font&gt;" parent="1" style="ellipse;whiteSpace=wrap;html=1;aspect=fixed;labelBackgroundColor=none;strokeColor=#7EA6E0;strokeWidth=4;fillColor=#FFFFFF;fontSize=15;fontColor=#9673A6;align=center;" vertex="1">
          <mxGeometry as="geometry" y="790" x="-1750" height="60" width="60" />
        </mxCell>
        <mxCell id="NfXFw1aVSQLSVC3R290Q-596" value="Actualización de Recargas" parent="1" style="shape=process;whiteSpace=wrap;html=1;backgroundOutline=1;labelBackgroundColor=none;strokeColor=#d6b656;strokeWidth=3;fontSize=15;align=center;fillColor=#fff2cc;" vertex="1">
          <mxGeometry as="geometry" y="777" x="189" height="60" width="120" />
        </mxCell>
        <mxCell id="NfXFw1aVSQLSVC3R290Q-597" parent="1" edge="1" target="NfXFw1aVSQLSVC3R290Q-596" source="NfXFw1aVSQLSVC3R290Q-592" style="edgeStyle=none;rounded=0;orthogonalLoop=1;jettySize=auto;html=1;exitX=0.5;exitY=1;exitDx=0;exitDy=0;strokeColor=#7EA6E0;strokeWidth=4;fontSize=15;fontColor=#9673A6;entryX=0.5;entryY=0;entryDx=0;entryDy=0;">
          <mxGeometry as="geometry" relative="1">
            <mxPoint as="sourcePoint" y="733" x="235.9999999999991" />
            <mxPoint as="targetPoint" y="753" x="240.9999999999991" />
          </mxGeometry>
        </mxCell>
        <mxCell id="NfXFw1aVSQLSVC3R290Q-598" value="&lt;font color=&quot;#7ea6e0&quot; style=&quot;font-size: 25px&quot;&gt;a&lt;/font&gt;" parent="1" style="ellipse;whiteSpace=wrap;html=1;aspect=fixed;labelBackgroundColor=none;strokeColor=#7EA6E0;strokeWidth=4;fillColor=#FFFFFF;fontSize=15;fontColor=#9673A6;align=center;" vertex="1">
          <mxGeometry as="geometry" y="550" x="466.34000000000014" height="50" width="50" />
        </mxCell>
        <mxCell id="NfXFw1aVSQLSVC3R290Q-599" parent="1" edge="1" target="NfXFw1aVSQLSVC3R290Q-598" source="NfXFw1aVSQLSVC3R290Q-558" style="edgeStyle=none;rounded=0;orthogonalLoop=1;jettySize=auto;html=1;exitX=1;exitY=0.5;exitDx=0;exitDy=0;strokeColor=#10739E;strokeWidth=4;fontSize=15;fontColor=#9673A6;entryX=0;entryY=0.5;entryDx=0;entryDy=0;">
          <mxGeometry as="geometry" relative="1">
            <mxPoint as="sourcePoint" y="498" x="360" />
            <mxPoint as="targetPoint" y="554.9999999999998" x="360.0000000000009" />
          </mxGeometry>
        </mxCell>
        <mxCell id="NfXFw1aVSQLSVC3R290Q-600" value="&lt;font color=&quot;#7ea6e0&quot; style=&quot;font-size: 25px&quot;&gt;a&lt;/font&gt;" parent="1" style="ellipse;whiteSpace=wrap;html=1;aspect=fixed;labelBackgroundColor=none;strokeColor=#7EA6E0;strokeWidth=4;fillColor=#FFFFFF;fontSize=15;fontColor=#9673A6;align=center;" vertex="1">
          <mxGeometry as="geometry" y="1059" x="-1658.29" height="50" width="50" />
        </mxCell>
        <mxCell id="NfXFw1aVSQLSVC3R290Q-601" parent="1" edge="1" source="NfXFw1aVSQLSVC3R290Q-600" style="edgeStyle=none;rounded=0;orthogonalLoop=1;jettySize=auto;html=1;exitX=0.5;exitY=0;exitDx=0;exitDy=0;entryX=0.5;entryY=1;entryDx=0;entryDy=0;strokeColor=#7EA6E0;strokeWidth=4;fontSize=15;fontColor=#9673A6;">
          <mxGeometry as="geometry" relative="1">
            <mxPoint as="sourcePoint" y="1053" x="-1634.29" />
            <mxPoint as="targetPoint" y="993" x="-1633.3899999999998" />
          </mxGeometry>
        </mxCell>
        <mxCell id="NfXFw1aVSQLSVC3R290Q-602" value="Factor de Recarga" parent="1" style="shape=process;whiteSpace=wrap;html=1;backgroundOutline=1;labelBackgroundColor=none;strokeColor=#d6b656;strokeWidth=3;fontSize=15;align=center;fillColor=#fff2cc;" vertex="1">
          <mxGeometry as="geometry" y="713" x="369.8600000000006" height="60" width="120" />
        </mxCell>
        <mxCell id="NfXFw1aVSQLSVC3R290Q-603" parent="1" edge="1" target="NfXFw1aVSQLSVC3R290Q-602" source="NfXFw1aVSQLSVC3R290Q-503" style="edgeStyle=none;rounded=0;orthogonalLoop=1;jettySize=auto;html=1;exitX=1;exitY=0.5;exitDx=0;exitDy=0;entryX=0;entryY=0.5;entryDx=0;entryDy=0;strokeColor=#D6B656;strokeWidth=4;fontSize=15;fontColor=#9673A6;">
          <mxGeometry as="geometry" relative="1">
            <mxPoint as="sourcePoint" y="364.33333333333303" x="199.42446043165546" />
            <mxPoint as="targetPoint" y="573" x="199.42000000000007" />
          </mxGeometry>
        </mxCell>
        <mxCell id="4EQTZDQG9qpGBb2jCItY-1" value="&lt;h1&gt;Procesos&lt;/h1&gt;&lt;p&gt;A partir de las bases de datos inmersas en el servidor ws-oper01&lt;/p&gt;" parent="1" style="text;html=1;strokeColor=none;fillColor=none;spacing=5;spacingTop=-20;whiteSpace=wrap;overflow=hidden;rounded=0;labelBackgroundColor=none;fontSize=15;fontColor=#004C99;" vertex="1">
          <mxGeometry as="geometry" y="83" x="-380" height="120" width="190" />
        </mxCell>
        <mxCell id="NfXFw1aVSQLSVC3R290Q-576" parent="1" edge="1" target="NfXFw1aVSQLSVC3R290Q-562" source="NfXFw1aVSQLSVC3R290Q-382" style="edgeStyle=none;rounded=0;orthogonalLoop=1;jettySize=auto;html=1;exitX=0.046;exitY=0.7;exitDx=0;exitDy=0;entryX=0.5;entryY=0;entryDx=0;entryDy=0;strokeColor=#0000FF;strokeWidth=4;fontSize=15;fontColor=#9673A6;exitPerimeter=0;">
          <mxGeometry as="geometry" relative="1">
            <mxPoint as="sourcePoint" y="366.3333333333335" x="-712.7338129496402" />
            <mxPoint as="targetPoint" y="603.19" x="-1219.875" />
          </mxGeometry>
        </mxCell>
        <mxCell id="NfXFw1aVSQLSVC3R290Q-568" parent="1" edge="1" target="NfXFw1aVSQLSVC3R290Q-562" source="NfXFw1aVSQLSVC3R290Q-382" style="edgeStyle=none;rounded=0;orthogonalLoop=1;jettySize=auto;html=1;exitX=0;exitY=0.5;exitDx=0;exitDy=0;entryX=0.5;entryY=0;entryDx=0;entryDy=0;strokeColor=#6C8EBF;strokeWidth=4;fontSize=15;fontColor=#9673A6;">
          <mxGeometry as="geometry" relative="1" />
        </mxCell>
        <mxCell id="NfXFw1aVSQLSVC3R290Q-561" parent="1" edge="1" target="NfXFw1aVSQLSVC3R290Q-569" source="NfXFw1aVSQLSVC3R290Q-427" style="edgeStyle=none;rounded=0;orthogonalLoop=1;jettySize=auto;html=1;exitX=0.5;exitY=1;exitDx=0;exitDy=0;entryX=0.5;entryY=0;entryDx=0;entryDy=0;strokeColor=#10739e;strokeWidth=4;fontSize=15;fontColor=#9673A6;fillColor=#b1ddf0;">
          <mxGeometry as="geometry" relative="1">
            <mxPoint as="sourcePoint" y="453.00333333333304" x="660" />
          </mxGeometry>
        </mxCell>
        <mxCell id="NfXFw1aVSQLSVC3R290Q-582" parent="1" edge="1" target="NfXFw1aVSQLSVC3R290Q-581" source="NfXFw1aVSQLSVC3R290Q-428" style="edgeStyle=none;rounded=0;orthogonalLoop=1;jettySize=auto;html=1;exitX=0.5;exitY=1;exitDx=0;exitDy=0;strokeColor=#FF8000;strokeWidth=4;fontSize=15;fontColor=#9673A6;">
          <mxGeometry as="geometry" relative="1" />
        </mxCell>
        <mxCell id="NfXFw1aVSQLSVC3R290Q-585" parent="1" edge="1" target="NfXFw1aVSQLSVC3R290Q-586" source="NfXFw1aVSQLSVC3R290Q-581" style="edgeStyle=none;rounded=0;orthogonalLoop=1;jettySize=auto;html=1;exitX=0.5;exitY=1;exitDx=0;exitDy=0;strokeColor=#7EA6E0;strokeWidth=4;fontSize=15;fontColor=#9673A6;entryX=0.5;entryY=0;entryDx=0;entryDy=0;">
          <mxGeometry as="geometry" relative="1">
            <mxPoint as="targetPoint" y="513" x="106.23499999999967" />
            <mxPoint as="sourcePoint" y="463" x="100.47000000000025" />
          </mxGeometry>
        </mxCell>
        <mxCell id="NfXFw1aVSQLSVC3R290Q-591" parent="1" edge="1" target="NfXFw1aVSQLSVC3R290Q-587" source="NfXFw1aVSQLSVC3R290Q-382" style="edgeStyle=none;rounded=0;orthogonalLoop=1;jettySize=auto;html=1;exitX=0.5;exitY=1;exitDx=0;exitDy=0;entryX=0.5;entryY=0;entryDx=0;entryDy=0;strokeColor=#0e8088;strokeWidth=4;fontSize=15;fontColor=#9673A6;fillColor=#b0e3e6;">
          <mxGeometry as="geometry" relative="1">
            <mxPoint as="sourcePoint" y="366.3333333333335" x="-1210" />
            <mxPoint as="targetPoint" y="603.1900000000003" x="-1219.875" />
          </mxGeometry>
        </mxCell>
        <mxCell id="NfXFw1aVSQLSVC3R290Q-595" parent="1" edge="1" target="NfXFw1aVSQLSVC3R290Q-594" source="NfXFw1aVSQLSVC3R290Q-382" style="edgeStyle=none;rounded=0;orthogonalLoop=1;jettySize=auto;html=1;exitX=0;exitY=0.5;exitDx=0;exitDy=0;entryX=0.5;entryY=0;entryDx=0;entryDy=0;strokeColor=#6c8ebf;strokeWidth=4;fontSize=15;fontColor=#9673A6;fillColor=#dae8fc;">
          <mxGeometry as="geometry" relative="1">
            <mxPoint as="sourcePoint" y="702.0950000000002" x="-1318.7800000000043" />
            <mxPoint as="targetPoint" y="703" x="-1782.81" />
          </mxGeometry>
        </mxCell>
      </root>
    </mxGraphModel>
  </diagram>
</mxfile>
